<svg xmlns="http://www.w3.org/2000/svg" viewBox="0 0 30 30">
  <g fill="#444" stroke="#444">
    <path fill="none" stroke-width="2" d="M25 9v19l-20 0 0-26 11 0"/>
    <path stroke="none" d="m24.103 8.295 1.51-2.156L22.418.705h-2.876l-3.194 5.434 1.51 2.156h6.245Zm-.282-.542h-5.406l.828-1.355h5.527l-.949 1.355Zm-1.404-1.897h-2.843l1.407-2.306 1.436 2.306Zm2.4 0h-1.761l-2.87-4.609h1.922l2.709 4.609ZM19.704 1.5l.956 1.535-2.712 4.444-.956-1.365L19.704 1.5Z"/>
    <path stroke="none" d="M21.084 12.617H8.916v12.168h12.168V12.617Zm-10.43 5.215h3.477v1.738h-3.477v-1.738Zm5.215 0h3.477v1.738h-3.477v-1.738Zm3.477-1.738h-3.477v-1.739h3.477v1.739Zm-5.215-1.739v1.739h-3.477v-1.739h3.477Zm-3.477 6.953h3.477v1.739h-3.477v-1.739Zm5.215 1.739v-1.739h3.477v1.739h-3.477Z"/>
  </g>
</svg>
