<svg xmlns="http://www.w3.org/2000/svg" xml:space="preserve" fill-rule="evenodd" stroke-linejoin="round"
  stroke-miterlimit="2" clip-rule="evenodd" viewBox="0 0 30 30">
  <path fill="#444" stroke="none" fill-rule="nonzero"
    d="M3.162 7.931a6.648 6.648 0 0 0 1.667 6.613l6.674 6.668 2.959-2.96-6.674-6.668a2.468 2.468 0 0 1 .005-3.485 2.46 2.46 0 0 1 3.48-.002l.23.231 2.962-2.96-.23-.23A6.642 6.642 0 0 0 8.01 3.367a4.015 4.015 0 1 0-4.849 4.567V7.93Zm5.556 3.879 2.962 2.96 6.672-6.667a2.458 2.458 0 1 1 3.476 3.476l-.228.228 2.959 2.962.231-.231a6.653 6.653 0 0 0 1.688-6.544A4.015 4.015 0 0 0 25.948 0a4.014 4.014 0 0 0-3.975 3.459 6.65 6.65 0 0 0-6.581 1.68l-.578.576-6.098 6.092.002.003ZM26.55 21.979a6.646 6.646 0 0 0-1.76-6.276L18.124 9.03l-2.962 2.96 6.665 6.671a2.457 2.457 0 1 1-3.476 3.476l-.227-.227-2.959 2.962.227.227a6.649 6.649 0 0 0 6.66 1.653 4.015 4.015 0 1 0 4.498-4.774ZM20.9 18.433l-2.96-2.961-6.667 6.671a2.465 2.465 0 0 1-3.485-3.485l.228-.227-2.961-2.96-.226.227a6.644 6.644 0 0 0-1.742 6.348 4.015 4.015 0 1 0 4.839 4.806 6.643 6.643 0 0 0 6.309-1.748l6.665-6.67Z" />
</svg>