<svg xmlns="http://www.w3.org/2000/svg" xml:space="preserve" fill-rule="evenodd" stroke-linejoin="round" stroke-miterlimit="2" clip-rule="evenodd" viewBox="0 0 387 385">
  <path fill="#444" fill-rule="nonzero" d="M208.831 54.209c-4.607 2.764-10.134 3.993-15.356 3.993-5.221 0-10.442-1.229-15.355-3.993L86.603 1.695 0 51.753v276.394l96.123 54.358V220.047l82.918 46.987c4.3 2.457 9.214 3.685 14.127 3.685 4.607 0 9.521-1.228 13.82-3.685l83.532-46.987v162.458l96.124-54.664V51.446L300.041 1.695l-91.21 52.515v-.001Zm-23.34 199.004-81.997-46.373-23.033-12.898V356.4l-65.413-36.852V69.565l159.694 92.745c3.379 1.843 6.757 3.071 10.442 3.992v86.911h.307Zm185.798 66.028-65.413 37.16V193.636l-23.033 12.898-81.997 46.373v-86.603c3.685-.922 7.063-2.15 10.442-3.992l160.001-93.053v249.983-.001ZM203.61 149.105a21.106 21.106 0 0 1-20.883 0L23.032 56.36l63.571-36.852 83.839 48.215c7.064 3.993 15.048 6.143 23.033 6.143 7.985 0 15.969-2.15 23.033-6.143l83.839-48.215 63.571 36.852-160.309 92.745h.001Z"/>
</svg>