<svg xmlns="http://www.w3.org/2000/svg" viewBox="0 0 30 30">
  <g fill="#444" stroke="#444">
    <path stroke="none" d="M4.327 23.029c0-.734.647-1.336 1.434-1.336.788 0 1.435.602 1.435 1.336 0 .733-.647 1.336-1.435 1.336-.787 0-1.434-.603-1.434-1.336Zm0-15.965c0-.734.647-1.336 1.434-1.336.788 0 1.435.602 1.435 1.336 0 .733-.647 1.336-1.435 1.336-.787 0-1.434-.603-1.434-1.336Z"/>
    <path fill="none" stroke-width="2" d="M28.925 28.925H1.075V17.213h27.85v11.712ZM1.075 1.075h27.85v11.712H1.075V1.075Z"/>
  </g>
</svg>