<svg viewBox="0 0 30 30" xmlns="http://www.w3.org/2000/svg">
  <g stroke="#444" fill="#444">
    <path stroke="none" d="M27.51 13.28c.956 4.823-1.146 11.078-6.446 13.482-6.94 3.136-15.408.191-18.05-7.465-2.85-8.261 2.785-16.634 11.19-17.255 3.294-.238 6.24.541 8.834 2.579.27.207.51.446.891.78-1.13 1.066-2.197 2.085-3.358 3.183-1.958-1.687-4.235-2.26-6.718-1.846-1.846.302-3.374 1.241-4.632 2.626-2.371 2.61-2.785 6.733-.97 9.853 1.894 3.263 5.427 4.744 9.247 3.868 2.706-.605 5.078-3.056 5.285-5.571h-6.972V13.28h11.7z"/>
  </g>
</svg>
