<svg xmlns="http://www.w3.org/2000/svg" viewBox="0 0 400 400">
    <g>
        <path fill="#0B996E" d="M200,50 C283.594,50 350,116.406 350,200 C350,283.594 283.594,350 200,350 C116.406,350 50,283.594 50,200 C50,116.406 116.406,50 200,50 Z"/>
        <g fill="#ffffff">
            <path d="M140,140 L260,140 C271.046,140 280,148.954 280,160 L280,170 C280,181.046 271.046,190 260,190 L150,190 C144.477,190 140,194.477 140,200 L140,210 C140,215.523 144.477,220 150,220 L250,220 C261.046,220 270,228.954 270,240 L270,260 C270,271.046 261.046,280 250,280 L140,280 C128.954,280 120,271.046 120,260 L120,160 C120,148.954 128.954,140 140,140 Z"/>
        </g>
    </g>
</svg>
