<svg xmlns="http://www.w3.org/2000/svg" xml:space="preserve" fill-rule="evenodd" stroke-linejoin="round" stroke-miterlimit="2" clip-rule="evenodd" viewBox="0 0 30 30">
  <path fill="#444" stroke="none" d="M15.654 1.563h-1.277l-.336.068a7.24 7.24 0 0 0-2.166.621 6.394 6.394 0 0 0-1.865 1.293 6.537 6.537 0 0 0-1.914 3.057 6.62 6.62 0 0 0-.27 2.116c.023.74.158 1.445.404 2.117a6.913 6.913 0 0 0 1.747 2.62l.436.403-2.788 4.535c-.582-.023-1.086.056-1.511.235-.672.291-1.176.739-1.512 1.344a3.465 3.465 0 0 0-.302 1.04c-.045.36-.023.717.067 1.076.179.672.549 1.21 1.108 1.612.336.224.706.386 1.109.487.403.101.806.123 1.21.067.402-.056.789-.195 1.158-.42.37-.223.678-.503.924-.84.269-.38.431-.817.487-1.31a2.704 2.704 0 0 0-.185-1.377c-.022-.112-.1-.268-.235-.47l-.1-.201 3.963-6.45c.134-.202.224-.358.269-.47l-.336-.101a2.054 2.054 0 0 1-.437-.134 4.8 4.8 0 0 1-1.394-.924 4.222 4.222 0 0 1-.957-1.327 3.912 3.912 0 0 1-.302-2.52c.09-.514.28-.996.57-1.444a4.627 4.627 0 0 1 1.042-1.142 4.566 4.566 0 0 1 2.754-.907 4.176 4.176 0 0 1 1.764.32c.571.234 1.07.576 1.495 1.024.38.358.677.79.89 1.293.213.504.33 1.013.353 1.528 0 .381-.068.851-.202 1.411l2.352.639.268.033a6.061 6.061 0 0 0 .235-2.889 6.368 6.368 0 0 0-.655-2.133 6.625 6.625 0 0 0-1.327-1.797c-.94-.94-2.093-1.568-3.46-1.881a4.276 4.276 0 0 0-.604-.134l-.47-.068Zm-.639 4.166a3.118 3.118 0 0 0-2.167.924c-.302.302-.52.655-.654 1.058-.18.448-.224.94-.135 1.478.068.403.224.783.47 1.142.247.358.56.638.941.84.538.335 1.165.481 1.881.436.067.09.123.18.168.269l3.763 6.416c.067.134.134.235.201.302.605-.582 1.26-.98 1.965-1.192a4.632 4.632 0 0 1 2.184-.118c.75.135 1.405.426 1.965.874.716.56 1.203 1.248 1.461 2.065.257.818.263 1.64.017 2.47a4.08 4.08 0 0 1-.958 1.679 4.398 4.398 0 0 1-1.629 1.109 4.285 4.285 0 0 1-2.234.285 4.605 4.605 0 0 1-2.133-.823c-.09-.067-.235-.18-.436-.336l-.168-.201c-.09.067-.213.179-.37.336l-1.579 1.545a7.365 7.365 0 0 0 1.747 1.293c.65.347 1.333.588 2.05.722l.738.135h1.31l.94-.168a7.017 7.017 0 0 0 3.696-2.016 6.638 6.638 0 0 0 1.226-1.696 6.756 6.756 0 0 0 .655-1.999 7.205 7.205 0 0 0-.067-2.402 6.428 6.428 0 0 0-.84-2.166A7.35 7.35 0 0 0 25.63 15.1a7.215 7.215 0 0 0-2.368-.538 7.862 7.862 0 0 0-2.402.235l-.57.168-2.722-4.602c.291-.425.47-.84.538-1.242a2.812 2.812 0 0 0-.437-2.016 2.844 2.844 0 0 0-1.478-1.176 3.507 3.507 0 0 0-1.176-.201Zm-9.472 8.868a6.994 6.994 0 0 0-3.36 1.78c-1.052.986-1.735 2.161-2.049 3.527L0 20.711v1.242l.067.37c.045.291.09.515.135.672.156.694.43 1.355.823 1.982a6.936 6.936 0 0 0 1.427 1.646 7.394 7.394 0 0 0 3.863 1.646c.851.09 1.702.039 2.553-.152a7.484 7.484 0 0 0 2.352-.957 6.812 6.812 0 0 0 2.62-3.057c.156-.38.313-.884.47-1.511.134-.023.336-.023.605 0l4.199.067c.313 0 .537.011.671.033.247.448.527.795.84 1.042.314.246.666.425 1.058.537.392.112.79.157 1.193.135a3.263 3.263 0 0 0 1.68-.672c.604-.47.962-1.075 1.074-1.814.045-.38.028-.75-.05-1.109a2.722 2.722 0 0 0-.454-1.007 3.092 3.092 0 0 0-1.377-1.075 2.893 2.893 0 0 0-1.192-.219 3.343 3.343 0 0 0-1.193.252 3.024 3.024 0 0 0-1.444 1.243l-.101.202c-.314 0-.784-.012-1.41-.034l-3.797-.034a23.361 23.361 0 0 0-1.444-.033l-1.68-.034.101.571c.18.963.034 1.87-.437 2.721a4.135 4.135 0 0 1-1.343 1.512c-.583.403-1.22.65-1.915.739a4.374 4.374 0 0 1-2.351-.252 4.288 4.288 0 0 1-1.915-1.428 3.984 3.984 0 0 1-.907-2.653c.022-.829.28-1.602.773-2.318a4.09 4.09 0 0 1 1.074-1.075 4.537 4.537 0 0 1 1.378-.638l.302-.101-.705-2.553Z"/>
</svg>
