<svg xmlns="http://www.w3.org/2000/svg" xml:space="preserve" fill-rule="evenodd" stroke-linejoin="round" stroke-miterlimit="2" clip-rule="evenodd" viewBox="0 0 94 94">
    <g fill="#444">
      <path d="M93.619 0v76.282H19.058L0 93.619V0h93.619Zm-6.812 6.812H6.812v71.401l9.611-8.743h70.384V6.812Z"/>
      <path fill-rule="nonzero" d="M42.347 35.488h8.925v8.928h-8.925v-8.928Zm-17.856 0h8.928v8.928h-8.928v-8.928Zm35.706 0h8.931v8.928h-8.931v-8.928Z"/>
      <path d="M42.347 35.488h8.925v8.928h-8.925v-8.928Zm3.125 3.124v2.679h2.675v-2.678l-2.675-.001Zm-20.981-3.125h8.928v8.929h-8.928v-8.929Zm3.125 3.125v2.679h2.678v-2.679h-2.678Zm32.581-3.125h8.931v8.929h-8.931v-8.929Zm3.125 3.125v2.679h2.681v-2.678l-2.681-.001Z"/>
    </g>
  </svg>