<svg viewBox="0 0 30 30" xmlns="http://www.w3.org/2000/svg">
  <g fill="#444" stroke="none">
    <path d="M24.75 3.626c.891 0 1.625.734 1.625 1.625v19.5c0 .891-.734 1.625-1.625 1.625H5.25a1.633 1.633 0 0 1-1.625-1.625V5.25c0-.891.734-1.625 1.625-1.625h19.5ZM5.25 2.001A3.265 3.265 0 0 0 2 5.251v19.5A3.265 3.265 0 0 0 5.25 28h19.5A3.265 3.265 0 0 0 28 24.75V5.25a3.265 3.265 0 0 0-3.25-3.25H5.25Z"/>
    <path d="M10.938 21.5A2.45 2.45 0 0 1 8.5 23.939a2.45 2.45 0 0 1-2.437-2.437A2.45 2.45 0 0 1 8.5 19.063a2.45 2.45 0 0 1 2.438 2.438ZM6.063 7.69c0-.892.733-1.625 1.625-1.625 8.974 0 16.25 7.275 16.25 16.25 0 .89-.734 1.624-1.626 1.624a1.633 1.633 0 0 1-1.625-1.625c0-7.13-5.868-13-13-13A1.633 1.633 0 0 1 6.064 7.69Zm0 6.5c0-.892.733-1.625 1.625-1.625 5.348 0 9.75 4.4 9.75 9.75 0 .89-.734 1.624-1.626 1.624a1.633 1.633 0 0 1-1.624-1.625c0-3.565-2.935-6.5-6.5-6.5a1.633 1.633 0 0 1-1.625-1.624Z"/>
  </g>
</svg>