<svg xmlns="http://www.w3.org/2000/svg" xml:space="preserve" fill-rule="evenodd" stroke-linecap="round" stroke-linejoin="round" clip-rule="evenodd" viewBox="0 0 24 26">
  <circle cx="9.997" cy="10" r="3.31" fill="none" stroke="#444" stroke-width="1.61" transform="translate(-.86 .215) scale(1.2785)"/>
  <path fill="none" stroke="#444" stroke-width="2" d="m22.777 15.921-2.92 5.053c-1.128-.947-2.582-1.222-3.71-.57-1.118.636-1.605 2.022-1.35 3.463H9.028c.26-1.44-.233-2.814-1.344-3.463-1.129-.666-2.594-.383-3.722.57l-2.906-5.053c1.372-.529 2.323-1.644 2.323-2.933-.015-1.292-.95-2.39-2.323-2.908l2.896-5.027c1.125.936 2.594 1.22 3.736.573 1.11-.652 1.6-2.04 1.34-3.493h5.789c-.244 1.453.227 2.825 1.344 3.477 1.14.652 2.594.379 3.721-.544l2.892 5.011c-1.384.516-2.334 1.63-2.323 2.934.003 1.29.953 2.393 2.325 2.91Z"/>
</svg>