<svg xmlns="http://www.w3.org/2000/svg" xml:space="preserve" fill-rule="evenodd" stroke-linejoin="round" stroke-miterlimit="2" clip-rule="evenodd" viewBox="0 0 125 125">
    <path fill="#444" d="M25.963 12.712c-7.132 0-12.41 6.242-12.174 13.013.227 6.504-.068 14.928-2.188 21.797C9.474 54.412 5.876 58.776 0 59.337v6.326c5.876.561 9.474 4.925 11.601 11.815 2.12 6.869 2.415 15.293 2.188 21.797-.236 6.769 5.042 13.013 12.175 13.013h73.083c7.132 0 12.409-6.242 12.172-13.013-.226-6.504.068-14.928 2.189-21.797 2.128-6.89 5.716-11.254 11.592-11.815v-6.326c-5.876-.561-9.464-4.925-11.592-11.815-2.121-6.868-2.415-15.293-2.189-21.797.237-6.769-5.04-13.013-12.172-13.013H25.962h.001Zm58.783 61.295c0 9.322-6.954 14.976-18.493 14.976H46.61a2.128 2.128 0 0 1-2.118-2.119V38.136c0-1.163.956-2.119 2.118-2.119h19.531c9.622 0 15.936 5.212 15.936 13.214 0 5.616-4.248 10.645-9.66 11.525v.294c7.368.808 12.329 5.91 12.329 12.957ZM64.111 42.733h-11.2v15.82h9.433c7.293 0 11.314-2.936 11.314-8.185 0-4.919-3.458-7.635-9.547-7.635Zm-11.2 22.096v17.436h11.612c7.592 0 11.615-3.047 11.615-8.772 0-5.727-4.135-8.664-12.103-8.664H52.911Z"/>
  </svg>