<svg id="logo-svg" viewBox="0 0 444 80" style="background-color:#ffffff00" version="1.1"
	xmlns="http://www.w3.org/2000/svg" xmlns:xlink="http://www.w3.org/1999/xlink" xml:space="preserve"
	x="0px" y="0px" width="444px" height="80px" preserveAspectRatio="xMinYMin"
>
    <style>
        .style0 {
            enable-background: new 0 0 444 80;
        }
        .style1 {
            fill: #fff;
        }
        .style2 {
            stop-color: #c8c7c7;
        }
        .style3 {
            stop-color: #fff;
        }
        .style4 {
            fill: #fff;
        }
        .style5 {
            fill: #fff;
        }
    </style>
    <g id="bg"></g>
    <g id="Layer_1">
        <g>
            <g>
                <path class="style1" d="M49.785 273.421h11.471v78.89h36.322l-0.119 8.672H49.785V273.421z"/>
                <path class="style1" d="M147.878 273.421l31.305 87.562h-12.188l-24.255-70.579l-0.836-3.494l-0.837 3.494l-13.382 38.7 l-1.314 2.53l1.435-0.241h16.13c2.867 0 5.1 0.9 6.6 2.589c1.514 1.7 2.7 3.8 3.6 6.083h-30.11l-7.169 21 h-11.351l31.305-87.562H147.878z"/>
                <path class="style1" d="M206.902 291.005l-1.673-4.095l0.239 4.095v69.978h-9.68v-87.562h11.353l42.177 67.9 l1.434 3.975l-0.239-4.215v-67.689h10.037v87.562h-10.156L206.902 291.005z"/>
                <path class="style1" d="M316.347 362.428c-2.709 0-5.298-0.121-7.766-0.361c-2.471-0.241-5.457-0.804-8.962-1.686 c1.115-2.088 2.588-3.813 4.421-5.18c1.832-1.364 4.102-1.928 6.811-1.686c1.273 0.2 2.2 0.2 2.9 0.2 c0.676 0 1.5 0 2.4 0c3.823 0 7.388-0.963 10.693-2.891c3.304-1.927 6.192-4.556 8.663-7.889 c2.468-3.331 4.399-7.227 5.795-11.683c1.393-4.456 2.091-9.214 2.091-14.272c0-11.642-2.929-20.614-8.782-26.919 c-5.855-6.303-14.678-9.454-26.466-9.454c-2.39 0-4.739 0.081-7.049 0.241c-2.311 0.162-4.421 0.361-6.333 0.602v79.493h-11.351 v-86.121c3.823-0.881 8.024-1.583 12.605-2.104c4.579-0.522 8.621-0.783 12.127-0.783c7.567 0 14.3 1 20.2 3.1 c5.894 2 10.9 5 14.9 8.901c4.022 3.9 7.1 8.6 9.2 14.194c2.109 5.6 3.2 11.9 3.2 18.9 c0 6.575-1.057 12.63-3.166 18.162c-2.111 5.533-4.958 10.324-8.543 14.375c-3.584 4.05-7.748 7.198-12.486 9.4 C326.722 361.3 321.7 362.4 316.3 362.428z"/>
                <path class="style1" d="M368.68 273.421h49.466v8.671H380.03v70.218h39.907v8.672H368.68V273.421z M414.083 310.878v8.431 h-29.512c0.875-2.329 2.091-4.315 3.644-5.961c1.554-1.646 3.764-2.47 6.632-2.47H414.083z"/>
                <path class="style1" d="M493.657 297.835c0 4.812-1.335 9.042-4.003 12.69c-2.669 3.649-6.074 6.515-10.216 8.6 l-2.867 0.962l2.39 0.963c2.946 2 5.2 4.5 6.8 7.338c1.553 2.9 2.9 6.1 3.9 9.6 c1.076 3.5 2.1 7.2 3.1 11.065c0.995 3.9 2.4 7.9 4.2 11.967h-11.948c-1.595-3.452-2.85-7.146-3.764-11.081 c-0.918-3.934-1.934-7.709-3.047-11.322c-1.116-3.613-2.529-6.824-4.241-9.636c-1.714-2.809-4.122-4.817-7.23-6.022 c-0.238 0.081-0.597 0.121-1.075 0.121c-1.753 0.162-3.625 0.181-5.615 0.06c-1.993-0.121-4.104-0.461-6.333-1.024 c0.876-2.087 2.211-3.812 4.003-5.179c1.792-1.364 3.962-2.087 6.512-2.168c2.07-0.079 4.141-0.561 6.213-1.445 c2.07-0.883 3.923-2.066 5.557-3.553c1.631-1.485 2.966-3.271 4.002-5.36c1.034-2.087 1.554-4.376 1.554-6.865 c0-2.409-0.52-4.637-1.554-6.685c-1.036-2.047-2.431-3.833-4.182-5.36c-1.753-1.524-3.805-2.729-6.153-3.613 c-2.351-0.882-4.88-1.325-7.587-1.325c-2.231 0-4.263 0.042-6.094 0.121c-1.833 0.081-4.183 0.403-7.05 0.963v79.372H437.62 v-86.361c4.46-0.881 8.561-1.562 12.307-2.044c3.743-0.481 7.806-0.723 12.188-0.723c4.779 0 9.1 0.7 13 2 c3.901 1.4 7.2 3.2 10 5.594c2.748 2.4 4.9 5.1 6.3 8.239c1.473 3.1 2.2 6.4 2.2 9.863V297.835z"/><path class="style1" d="M537.984 280.647c-2.23 0-4.202 0.342-5.914 1.024c-1.715 0.683-3.166 1.626-4.361 2.8 c-1.194 1.205-2.091 2.589-2.688 4.155c-0.597 1.566-0.896 3.233-0.896 4.999c0 3.1 1 5.8 3 8 c1.99 2.2 4.5 4.2 7.5 6.083c3.026 1.8 6.3 3.7 9.7 5.48c3.465 1.8 6.7 3.9 9.7 6.2 c3.026 2.3 5.5 5.1 7.5 8.19c1.99 3.1 3 7 3 11.562c0 2.972-0.618 5.863-1.852 8.7 c-1.236 2.811-3.067 5.299-5.496 7.467c-2.431 2.168-5.398 3.896-8.901 5.179c-3.507 1.284-7.527 1.927-12.068 1.9 c-1.673 0-3.545-0.102-5.615-0.301c-2.072-0.201-4.182-0.503-6.333-0.903c-2.15-0.401-4.342-0.963-6.572-1.686 c-2.23-0.723-4.341-1.565-6.331-2.529l3.107-7.828c3.584 1.6 7.2 2.8 10.8 3.492c3.624 0.7 6.8 1.1 9.6 1.1 c5.654 0 10.036-1.423 13.143-4.268c3.106-2.846 4.66-6.354 4.66-10.524c0-3.448-0.997-6.314-2.987-8.599 c-1.992-2.285-4.462-4.351-7.408-6.195c-2.948-1.844-6.174-3.628-9.678-5.352c-3.506-1.724-6.732-3.687-9.678-5.892 c-2.948-2.204-5.418-4.829-7.408-7.876c-1.992-3.047-2.987-6.816-2.987-11.307c0-2.966 0.577-5.771 1.733-8.418 c1.154-2.646 2.808-4.97 4.959-6.976c2.15-2.004 4.698-3.568 7.646-4.69c2.946-1.121 6.213-1.684 9.797-1.684 c3.425 0 6.9 0.3 10.3 0.832c3.465 0.6 7.2 1.5 11.3 2.732l-3.226 7.758c-3.426-1.043-6.593-1.747-9.499-2.108 C542.782 280.8 540.2 280.6 538 280.647z"/>
            </g>
            <g>
                <g>
                    <linearGradient gradientUnits="userSpaceOnUse" id="SVGID_1_" x1="306" x2="306" y1="247" y2="35.5">
                        <stop class="style2" offset="0"/><stop class="style3" offset="1"/>
                    </linearGradient>
                    <path class="style4" d="M464.289 246.966c-39.873 0-76.455-22.661-94.365-58.083 c-17.906 35.422-54.489 58.083-94.364 58.083c-31.01 0-59.846-13.274-79.977-36.615v30.526H43.595l61.262-140.021H42.001V42.016 h154.625l-59.742 139.647h40.995c-5.328-12.846-8.027-26.423-8.027-40.405c0-58.288 47.42-105.708 105.708-105.708 c39.875 0 76.5 22.7 94.4 58.083c17.91-35.422 54.492-58.083 94.365-58.083c58.289 0 105.7 47.4 105.7 105.7 S522.578 247 464.3 246.966z M464.924 98.189c-24.099 0-43.705 19.605-43.705 43.7 c0 24.1 19.6 43.7 43.7 43.701c24.096 0 43.699-19.604 43.699-43.701C508.623 117.8 489 98.2 464.9 98.189z M274.229 98.189c-24.098 0-43.704 19.605-43.704 43.703c0 24.1 19.6 43.7 43.7 43.7 c24.096 0 43.7-19.604 43.7-43.701C317.929 117.8 298.3 98.2 274.2 98.189z"/>
                </g>
                <g>
                    <path class="style5" d="M464.289 37.572c57.266 0 103.7 46.4 103.7 103.7 c0 57.263-46.422 103.686-103.688 103.686c-41.939 0-78.032-24.911-94.365-60.729c-16.33 35.818-52.425 60.729-94.365 60.7 c-33.366 0-63.034-15.779-81.998-40.26v34.172H46.687l61.262-140.021H44.023V44.038h149.538L133.82 183.685h47.135 c-5.818-12.956-9.081-27.305-9.081-42.427c0-57.261 46.42-103.686 103.686-103.686c41.939 0 78 24.9 94.4 60.7 C386.257 62.5 422.4 37.6 464.3 37.6 M464.924 187.616c25.249 0 45.721-20.471 45.721-45.723 c0-25.253-20.472-45.725-45.721-45.725c-25.252 0-45.727 20.472-45.727 45.725C419.197 167.1 439.7 187.6 464.9 187.6 M274.229 187.616c25.251 0 45.722-20.471 45.722-45.723c0-25.253-20.472-45.725-45.722-45.725 c-25.252 0-45.725 20.472-45.725 45.725C228.503 167.1 249 187.6 274.2 187.6 M464.289 33.5 c-21.065 0-41.468 6.085-59.004 17.596c-14.785 9.706-26.887 22.799-35.36 38.177c-8.472-15.377-20.575-28.471-35.36-38.177 c-17.536-11.512-37.94-17.596-59.005-17.596c-28.776 0-55.83 11.206-76.177 31.554c-20.347 20.348-31.553 47.4-31.553 76.2 c0 13.2 2.4 26.1 7.1 38.383h-34.948L197.28 45.628l2.41-5.635h-6.129H44.023h-4.044v4.044v54.797v4.044h4.044h57.742 L42.982 237.235l-2.479 5.665h6.183h146.875h4.044v-4.044v-23.286c8.574 9 18.7 16.5 29.7 22 c15.046 7.6 31.3 11.4 48.2 11.379c21.065 0 41.469-6.085 59.005-17.596c14.785-9.706 26.888-22.8 35.36-38.177 c8.473 15.4 20.6 28.5 35.4 38.177c17.536 11.5 37.9 17.6 59 17.596c28.776 0 55.83-11.206 76.178-31.554 c20.348-20.348 31.553-47.401 31.553-76.176C572.021 81.9 523.7 33.5 464.3 33.528L464.289 33.528z M464.924 183.6 c-22.984 0-41.683-18.697-41.683-41.679c0-22.983 18.699-41.681 41.683-41.681c22.981 0 41.7 18.7 41.7 41.7 C506.601 164.9 487.9 183.6 464.9 183.572L464.924 183.572z M274.229 183.572c-22.983 0-41.681-18.697-41.681-41.679 c0-22.983 18.698-41.681 41.681-41.681c22.982 0 41.7 18.7 41.7 41.681C315.907 164.9 297.2 183.6 274.2 183.6 L274.229 183.572z"/>
                </g>
            </g>
        </g>
    </g>
</svg>
