<svg viewBox="0 0 30 30" xmlns="http://www.w3.org/2000/svg">
  <g fill="#444" stroke="#444">
    <path stroke="none" d="M12.565 10.94c.001-3.565 2.936-6.498 6.502-6.498s6.501 2.935 6.501 6.501c0 3.567-2.935 6.502-6.501 6.502a6.503 6.503 0 0 1-2.063-.336 1.22 1.22 0 0 0-1.248.293l-1.663 1.666h-1.934c-.669 0-1.22.55-1.22 1.219v1.934l-.097.098H8.908c-.669 0-1.219.55-1.219 1.219v1.934l-.098.097H4.845a.408.408 0 0 1-.407-.406v-2.747l8.166-8.164c.326-.326.44-.811.294-1.249a6.494 6.494 0 0 1-.333-2.062Zm6.502-8.939h-.002c-4.904 0-8.94 4.036-8.94 8.94 0 .705.084 1.408.25 2.093l-8.017 8.017a1.22 1.22 0 0 0-.358.861v3.251a2.845 2.845 0 0 0 2.845 2.844h3.25c.323 0 .634-.129.862-.357l.812-.813a1.22 1.22 0 0 0 .358-.861v-1.22h1.22c.322 0 .632-.128.86-.357l.813-.813a1.22 1.22 0 0 0 .358-.861v-1.22h1.219c.323 0 .633-.128.861-.357l1.515-1.515a8.938 8.938 0 0 0 2.087.247c4.904 0 8.94-4.035 8.94-8.94 0-4.901-4.032-8.935-8.933-8.939Zm.812 9.753c.892 0 1.626-.734 1.626-1.626 0-.892-.734-1.625-1.626-1.625-.891 0-1.625.733-1.625 1.625s.734 1.626 1.625 1.626Z"/>
  </g>
</svg>
