<svg xmlns="http://www.w3.org/2000/svg" xml:space="preserve" fill-rule="evenodd" stroke-linejoin="round" stroke-miterlimit="2" clip-rule="evenodd" viewBox="0 0 30 30">
  <g fill="none" stroke="#444">
    <path stroke-width="2" d="M8.01 7.376A6.99 6.99 0 0 1 15 14.365V15H1.656a.635.635 0 0 1-.635-.635 6.99 6.99 0 0 1 6.99-6.99ZM22.624 8.01A6.99 6.99 0 0 1 15.635 15H15V1.656c0-.35.284-.635.635-.635a6.99 6.99 0 0 1 6.99 6.99ZM21.99 22.624A6.99 6.99 0 0 1 15 15.635V15h13.344c.35 0 .635.284.635.635a6.99 6.99 0 0 1-6.99 6.99ZM7.376 21.99A6.99 6.99 0 0 1 14.365 15H15v13.344c0 .35-.284.635-.635.635a6.99 6.99 0 0 1-6.99-6.99Z"/>
  </g>
</svg>
