<svg xmlns="http://www.w3.org/2000/svg" xml:space="preserve" fill-rule="evenodd" stroke-linejoin="round" stroke-miterlimit="2" clip-rule="evenodd" viewBox="0 0 30 30">
  <path fill="none" stroke="#444" stroke-width="2" d="M1.025 22.355V3.231c0-1.218.987-2.206 2.206-2.206h23.538c1.218 0 2.206.988 2.206 2.206v19.125l-6.62 6.62H7.646l-4.414-.001a2.207 2.207 0 0 1-2.206-2.207v-4.413Z"/>
  <path fill="#444" fill-rule="nonzero" d="m16.753 12.162.847 1.285 1.683-1.226v8.081h1.67V9.972h-1.164l-3.036 2.19ZM13.81 14.88v-.092c.393-.212.717-.505.96-.859l.006-.009a2.331 2.331 0 0 0 .393-1.385v.004-.034c0-.524-.157-1.012-.428-1.418l.006.01a2.904 2.904 0 0 0-1.153-.997l-.018-.008a3.746 3.746 0 0 0-1.687-.361h.003a3.208 3.208 0 0 0-2.091.663l.008-.006c-.5.386-.885.9-1.108 1.493l-.008.023 1.527.636a2.13 2.13 0 0 1 .579-.889l.002-.001a1.534 1.534 0 0 1 1.083-.362h-.004l.069-.001c.409 0 .785.14 1.082.375l-.003-.003a1.209 1.209 0 0 1 .453.992v-.003l.001.056c0 .421-.197.796-.505 1.037l-.003.002a1.931 1.931 0 0 1-1.25.4h.004-.798v1.526h.89l.08-.001c.512 0 .985.173 1.36.465l-.004-.004a1.45 1.45 0 0 1 .572 1.188v-.002.03c0 .46-.21.87-.541 1.138l-.003.003a1.935 1.935 0 0 1-1.302.46h.002-.052c-.461 0-.885-.165-1.213-.44l.003.002a2.333 2.333 0 0 1-.73-1.224l-.003-.015-1.542.636a3.45 3.45 0 0 0 1.364 1.963l.01.008c.6.42 1.345.67 2.148.67H12.041c.642 0 1.248-.15 1.786-.42l-.023.011a3.22 3.22 0 0 0 1.261-1.105l.008-.012a2.88 2.88 0 0 0 .46-1.619v.003-.065a2.52 2.52 0 0 0-.49-1.497l.006.007a2.924 2.924 0 0 0-1.22-.962l-.02-.007Z"/>
</svg>