<svg viewBox="0 0 30 30" xmlns="http://www.w3.org/2000/svg">
  <g fill="#444" stroke="#444">
    <path stroke-width=".5" d="M15 2C9 2 4.475 4.044 4.475 6.755V23.24c0 2.71 4.525 4.758 10.525 4.758s10.525-2.042 10.525-4.758V6.754C25.525 4.043 21 2 15 2zm9.225 15.745c0 1.634-3.788 3.459-9.225 3.459-5.437 0-9.225-1.82-9.225-3.459V14.61c1.761 1.454 5.15 2.398 9.225 2.398 4.074 0 7.47-.944 9.225-2.398v3.135zm0-5.496c0 1.634-3.788 3.46-9.225 3.46-5.437 0-9.225-1.82-9.225-3.46V9.114c1.761 1.454 5.15 2.398 9.225 2.398 4.074 0 7.47-.944 9.225-2.398v3.135zM15 3.3c5.437 0 9.225 1.82 9.225 3.459 0 1.64-3.788 3.459-9.225 3.459-5.437 0-9.225-1.82-9.225-3.459C5.775 5.119 9.563 3.3 15 3.3zm0 23.394c-5.437 0-9.225-1.82-9.225-3.458V20.1c1.761 1.453 5.15 2.397 9.225 2.397 4.074 0 7.47-.944 9.225-2.397v3.135c0 1.639-3.788 3.458-9.225 3.458z"/>
  </g>
</svg>