<svg xmlns="http://www.w3.org/2000/svg" xml:space="preserve" fill-rule="evenodd" stroke-linejoin="round" stroke-miterlimit="2" clip-rule="evenodd" viewBox="0 0 30 30">
  <path fill="#444" fill-rule="nonzero" d="M9.374 25.013H5.006V11.645h4.368v13.368ZM7.294 9.62a2.212 2.212 0 0 1-2.288-2.307A2.213 2.213 0 0 1 7.33 5.008a2.213 2.213 0 0 1 2.287 2.306 2.212 2.212 0 0 1-2.325 2.307ZM25.01 25.013h-4.387V17.7c0-1.743-.619-2.943-2.175-2.943a2.342 2.342 0 0 0-2.193 1.574 2.683 2.683 0 0 0-.15 1.07v7.61h-4.312V11.646h4.312v1.875a4.35 4.35 0 0 1 3.937-2.268c2.83 0 4.968 1.875 4.968 5.868v7.893Z"/>
  <path fill="#444" d="M27.597.003a2.307 2.307 0 0 1 2.4 2.343v25.085a2.512 2.512 0 0 1-2.4 2.569H2.57A2.644 2.644 0 0 1 0 27.431V2.346A2.457 2.457 0 0 1 2.569.003h25.028Zm-1.685 2.006H4.232a2.127 2.127 0 0 0-2.225 2.03v21.729a2.29 2.29 0 0 0 2.225 2.225h21.68a2.176 2.176 0 0 0 2.078-2.225V4.039a1.997 1.997 0 0 0-2.078-2.03Z"/>
</svg>