<svg xmlns="http://www.w3.org/2000/svg" viewBox="0 0 200 200">
    <g>
        <path d="M100,20 C144.183,20 180,55.817 180,100 C180,144.183 144.183,180 100,180 C55.817,180 20,144.183 20,100 C20,55.817 55.817,20 100,20 Z" fill="#0B996E"/>
        <path d="M70,70 L130,70 C135.523,70 140,74.477 140,80 L140,85 C140,90.523 135.523,95 130,95 L75,95 C72.239,95 70,97.239 70,100 L70,105 C70,107.761 72.239,110 75,110 L125,110 C130.523,110 135,114.477 135,120 L135,130 C135,135.523 130.523,140 125,140 L70,140 C64.477,140 60,135.523 60,130 L60,80 C60,74.477 64.477,70 70,70 Z" fill="white"/>
    </g>
</svg>
