<svg xmlns="http://www.w3.org/2000/svg" xml:space="preserve" fill-rule="evenodd" stroke-linejoin="round"
    stroke-miterlimit="2" clip-rule="evenodd" viewBox="0 0 94 94">
    <path fill="#444" stroke="none"
        d="M83.313 8.932c5.701 0 10.303 4.601 10.371 10.302v41.071a10.287 10.287 0 0 1-10.302 10.302H14.151L-.066 84.687V19.234A10.288 10.288 0 0 1 10.237 8.932h73.076ZM34.618 55.085V35.786a2.755 2.755 0 0 0-2.747-2.747 2.755 2.755 0 0 0-2.747 2.747v19.299a2.756 2.756 0 0 0 2.747 2.748 2.756 2.756 0 0 0 2.747-2.748Zm-12.774 0V25.896a2.756 2.756 0 0 0-2.748-2.747 2.755 2.755 0 0 0-2.747 2.747v29.189a2.756 2.756 0 0 0 2.747 2.748 2.757 2.757 0 0 0 2.748-2.748Zm13.118-28.09v-.206a2.932 2.932 0 0 0-2.953-2.954h-.275a2.931 2.931 0 0 0-2.953 2.954v.206a2.93 2.93 0 0 0 2.953 2.953h.275a2.931 2.931 0 0 0 2.953-2.953ZM54.33 57.146c.824-.343 1.442-1.236 1.58-2.129-.069-1.305-1.099-2.335-2.336-2.335-.343.068-.755.068-1.098.206a5.875 5.875 0 0 1-1.58.206c-1.305 0-2.267-.138-2.267-1.992V38.19h4.396a2.463 2.463 0 0 0 2.473-2.473 2.462 2.462 0 0 0-2.473-2.472h-4.396v-2.953c0-.825-.755-1.511-1.579-1.511a2.126 2.126 0 0 0-1.237.618l-6.112 5.975c-.412.343-.687.824-.687 1.305v.069c0 .824.687 1.442 1.511 1.442h2.473v13.255c0 4.327 2.541 6.594 7.28 6.594 1.442 0 2.816-.275 4.052-.893Zm16.827-4.258c-3.915 0-6.387-1.855-7.143-5.289h14.629c1.442-.068 2.61-1.305 2.541-2.747 0-5.769-3.571-12.019-11.401-12.019-5.22 0-11.401 3.365-11.401 12.637 0 7.898 4.671 12.637 12.363 12.637 4.258 0 6.318-.961 8.242-2.06.892-.412 1.442-1.305 1.511-2.266v-.069c0-1.374-1.099-2.404-2.473-2.404-.343 0-.755.069-1.099.275-1.786.893-3.777 1.373-5.769 1.305Zm-1.236-15.179c3.022-.069 5.563 2.198 5.906 5.22H64.083a5.718 5.718 0 0 1 5.838-5.22Z" />
</svg>