<svg xmlns="http://www.w3.org/2000/svg" xml:space="preserve" fill-rule="evenodd" stroke-linejoin="round"
    stroke-miterlimit="2" clip-rule="evenodd" viewBox="0 0 30 30">
    <path fill="#09c269" fill-rule="nonzero"
        d="M15 0C6.716 0 0 6.716 0 15c0 8.284 6.716 15 15 15 8.284 0 15-6.716 15-15 0-8.284-6.716-15-15-15Zm-7.5 9h15c.828 0 1.5.672 1.5 1.5v9c0 .828-.672 1.5-1.5 1.5h-15c-.828 0-1.5-.672-1.5-1.5v-9c0-.828.672-1.5 1.5-1.5Zm.561 1.5 6.939 4.85 6.939-4.85H8.061Zm-.561 1.178v7.822h15v-7.822l-7.5 5.25-7.5-5.25Z" />
</svg>
