<svg viewBox="0 0 30 30" xmlns="http://www.w3.org/2000/svg">
  <g stroke="#444" fill="#444">
    <path stroke="none" d="M8.757 19.568c.763-.102 1.274-.447 1.531-1.035.267-.635.414-1.362.441-2.18 0-.314-.289-.47-.868-.47-.552 0-.847.16-.884.483-.028.426-.083.85-.165 1.27-.049.31-.151.609-.304.883a.863.863 0 01-.152-.249 7.05 7.05 0 01-.662-2.29c0-.028.027-.041.083-.041 1.02-.111 1.794-.631 2.318-1.56.24-.524.359-1.062.359-1.614 0-1.086-.364-1.795-1.09-2.126a2.218 2.218 0 00-.828-.165c-.414 0-.805.11-1.173.331-.727.45-1.192 1.458-1.394 3.022a4.901 4.901 0 00-.124 1.104c.046 1.233.276 2.346.69 3.34.22.524.575.9 1.062 1.13.296.112.61.167.925.167h.235zm-1.16-4.54a7.982 7.982 0 01.842-3.464c.166.211.249.612.249 1.2 0 1.059-.364 1.812-1.09 2.264zm6.294 4.54c.764-.102 1.274-.447 1.532-1.035.267-.635.413-1.362.441-2.18 0-.314-.29-.47-.87-.47-.551 0-.845.16-.882.483-.029.426-.084.85-.166 1.27-.048.31-.151.609-.304.883a.856.856 0 01-.151-.249 7.057 7.057 0 01-.663-2.29c0-.028.028-.041.083-.041 1.021-.111 1.794-.631 2.319-1.56.239-.524.358-1.062.358-1.614 0-1.086-.364-1.795-1.09-2.126a2.215 2.215 0 00-.828-.165c-.414 0-.805.11-1.173.331-.726.45-1.191 1.458-1.393 3.022a4.883 4.883 0 00-.125 1.104c.046 1.233.276 2.346.69 3.34.22.524.575.9 1.063 1.13.295.112.609.167.924.167h.235zm-1.16-4.54a7.973 7.973 0 01.843-3.464c.165.211.248.612.248 1.2 0 1.059-.364 1.812-1.09 2.264zm5.466 4.719c.276-.01.497-.05.663-.125.175-.073.313-.238.414-.496.138-.45.257-.888.359-1.311.21-.901.469-1.776.772-2.622.138-.377.294-.837.47-1.38l.027.014c0 .672.004 1.334.014 1.987.009.644.05 1.279.124 1.904.01.212.05.368.124.47.083.092.225.156.428.193.12.027.244.041.373.041.312 0 .56-.064.745-.193a.253.253 0 00.124-.22v-.028c-.129-.764-.193-1.923-.193-3.478l.027-1.421c0-.432-.032-.86-.096-1.284-.065-.496-.447-.745-1.146-.745-.892 0-1.55.607-1.973 1.822a14.44 14.44 0 00-.51 1.463l-.676 2.015-.014-.083a17.39 17.39 0 01-.07-.939c-.009-.174-.018-.58-.027-1.214 0-.7.028-1.329.083-1.89l.055-.91c0-.24-.069-.41-.207-.512-.138-.11-.331-.175-.58-.193-.579.037-.901.317-.965.842-.056.478-.088.864-.097 1.159l-.041 1.545c0 .911.055 1.78.165 2.609.11.818.313 1.646.607 2.484.13.33.47.496 1.022.496zm8.633-.069c.506 0 .947-.129 1.324-.386.387-.258.621-.65.704-1.173.092-.7.138-1.399.138-2.098 0-1.196-.032-2.47-.097-3.822l-.04-1.367c0-.349-.305-.524-.911-.524-.267 0-.484.037-.65.11-.165.065-.29.226-.372.483-.083.26-.17.517-.262.773l-.138.387a29.163 29.163 0 01-.91 2.4.15.15 0 00-.029.056.154.154 0 01-.055.055l-.041-.096a10.005 10.005 0 01-.386-2.07l-.056-.428a.806.806 0 00-.317-.552.914.914 0 00-.58-.194c-.174 0-.363.06-.565.18a.564.564 0 00-.304.51l.014.042c.055.635.143 1.255.262 1.862.128.605.347 1.186.649 1.725.138.24.317.4.538.483.23.083.474.125.731.125.405 0 .736-.106.994-.318a2.84 2.84 0 00.69-.883v-.028a.156.156 0 00.027-.04c.01-.02.023-.029.042-.029.009.01.014.295.014.856 0 .68-.028 1.362-.083 2.043-.019.11-.042.234-.07.372a2.012 2.012 0 01-.082.36c-.037.1-.078.15-.124.15-.019 0-.042-.023-.07-.069-.23-.322-.57-.483-1.02-.483l-.194.015c-.1 0-.193.009-.276.027a.904.904 0 00-.29.138c-.11.073-.165.147-.165.22 0 .047.019.093.055.139.037.046.083.096.138.151.065.046.125.102.18.166.423.488.952.731 1.587.731v.001z"/>
    <path stroke="none" d="M3.846 19.706l.152-.014c.107 0 .213-.01.318-.028a.85.85 0 00.317-.138c.11-.083.166-.17.166-.262a.413.413 0 00-.07-.22 1.102 1.102 0 01-.11-.235c-.186-.801-.278-1.62-.276-2.443 0-1.04.023-1.84.07-2.401.036-.515.091-1.095.165-1.739l.11-.91c0-.102.01-.166.028-.194.028-.037.078-.055.152-.055.184.019.441.028.773.028.22 0 .427-.028.62-.083.194-.055.29-.152.29-.29 0-.129-.1-.225-.303-.29a2.833 2.833 0 00-.69-.124 7.177 7.177 0 00-.732-.041l-2.29.041a5.121 5.121 0 01-.249-.027.988.988 0 00-.165-.014 1.38 1.38 0 00-.22-.014l-.194.014c-.11 0-.212.014-.304.041a.685.685 0 00-.29.152c-.073.055-.11.115-.11.18 0 .082.055.15.165.206.276.166.833.249 1.67.249.074 0 .11.023.11.069-.026.341-.063.682-.11 1.02a37.388 37.388 0 00-.22 3.782c0 .635.013 1.187.04 1.656.038.46.134.989.29 1.587.102.33.4.497.898.497z"/>
  </g>
</svg>
