<svg viewBox="0 0 30 30" xmlns="http://www.w3.org/2000/svg">
  <g fill="#444" stroke="#444">
    <path stroke="none" d="M19.875 12.563c0-.446.367-.813.813-.813h1.625c.445 0 .812.367.812.813v1.624a.817.817 0 01-.813.813h-1.625a.817.817 0 01-.812-.813v-1.624z"/>
    <path stroke="none" d="M7.688 2c.445 0 .812.367.812.813v.812h13v-.813c0-.445.367-.812.813-.812.445 0 .812.367.812.813v.812h1.625A3.265 3.265 0 0128 6.875V24.75A3.265 3.265 0 0124.75 28H5.25A3.265 3.265 0 012 24.75V6.875a3.265 3.265 0 013.25-3.25h1.625v-.813c0-.445.367-.812.813-.812zM3.625 8.5v16.25c0 .891.734 1.625 1.625 1.625h19.5c.891 0 1.625-.734 1.625-1.625V8.5H3.625z"/>
  </g>
</svg>
