<svg xmlns="http://www.w3.org/2000/svg" xml:space="preserve" fill-rule="evenodd" stroke-linejoin="round" stroke-miterlimit="2" clip-rule="evenodd" viewBox="0 0 125 125">
    <path fill="#444" fill-rule="nonzero" d="M27.767 2.777a218.654 218.654 0 0 1 69.478 0 34.559 34.559 0 0 1 24.982 24.987 218.414 218.414 0 0 1 0 69.477 34.56 34.56 0 0 1-24.982 24.982 218.654 218.654 0 0 1-69.478 0A34.559 34.559 0 0 1 2.781 97.241a218.356 218.356 0 0 1 0-69.477A34.557 34.557 0 0 1 27.762 2.777h.005Zm41.524 41.341-30.526 3.549-9.041 34.912a9.897 9.897 0 0 0 1.323 7.877l20.485-19.105c-1.702-3.318-.596-7.3 2.626-9.426a8.558 8.558 0 0 1 10.401.827c2.789 2.602 3.165 6.699.885 9.7-2.279 3.005-6.549 4.039-10.108 2.452L34.851 94.029c2.534 1.457 5.578 1.919 8.473 1.284l37.436-8.43 3.804-28.468-15.273-14.297Zm6.43-18.384-5.862 9.719 23.356 23.371 9.733-5.833-27.227-27.257Z"/>
  </svg>