<svg xmlns="http://www.w3.org/2000/svg" xml:space="preserve" fill-rule="evenodd" stroke-linejoin="round"
    stroke-miterlimit="2" clip-rule="evenodd" viewBox="0 0 30 30">
    <path fill="#444" fill-rule="nonzero" stroke="none"
        d="M14.979 0C6.762 0 0 6.762 0 14.979c0 8.217 6.762 14.979 14.979 14.979 8.217 0 14.979-6.762 14.979-14.979C29.958 6.762 23.196 0 14.979 0ZM8.987 5.992h7.174c2.921 0 4.862 1.755 4.862 4.388 0 1.276-.434 2.325-1.36 3.23 1.793 1.134 2.806 2.892 2.806 4.845 0 3.57-3.296 6.262-7.695 6.262H8.986V5.993l.001-.001Zm2.603 2.436v6.912h.087c.291-.54 1.071-.994 2.808-1.53 2.545-.823 3.79-1.898 3.79-3.315 0-1.245-.956-2.067-2.401-2.067H11.59Zm6.079 6.573c-.956.481-2.085.934-3.445 1.386-1.534.483-2.634 1.73-2.634 3.005v2.89h2.952c2.98 0 5.18-1.673 5.18-3.939 0-1.332-.781-2.605-2.054-3.342h.001Z" />
</svg>