<svg viewBox="0 0 30 30" xmlns="http://www.w3.org/2000/svg">
  <g fill="#444" stroke="none">
    <path d="M20.128 2H9.887C5.539 2 2 5.525 2 9.858v10.284C2 24.475 5.539 28 9.887 28h10.226C24.475 28 28 24.475 28 20.142V9.858C28.014 5.525 24.475 2 20.128 2zm5.705 18.778a5.061 5.061 0 01-5.055 5.055H9.222a5.061 5.061 0 01-5.055-5.055V9.222a5.061 5.061 0 015.055-5.055h11.556a5.061 5.061 0 015.055 5.055v11.556z"/>
    <circle cx="22.034" cy="8.153" r="1.574"/>
    <path d="M15.043 8.428c-3.683 0-6.687 2.975-6.687 6.644 0 3.684 2.99 6.659 6.687 6.659 3.698 0 6.688-2.977 6.688-6.659-.014-3.669-3.004-6.644-6.688-6.644zm.073 10.905a4.325 4.325 0 01-4.334-4.319 4.324 4.324 0 014.334-4.318 4.324 4.324 0 014.333 4.318 4.324 4.324 0 01-4.333 4.319z"/>
  </g>
</svg>
