<svg xmlns="http://www.w3.org/2000/svg" xml:space="preserve" fill-rule="evenodd" stroke-linejoin="round" stroke-miterlimit="2" clip-rule="evenodd" viewBox="0 0 94 94">
  <path fill="#444" d="M3.425 38.671 38.671 3.425c4.45-4.567 11.827-4.567 16.394 0l35.129 35.246c4.566 4.567 4.566 11.827 0 16.394L55.065 90.194c-4.567 4.566-11.827 4.566-16.394 0L3.425 55.065c-4.567-4.567-4.567-11.944 0-16.394M79.304 37.5c0-.351-.352-.702-.703-.702H63.027c-.468 0-.937.351-.937.936-.234 7.377-4.215 13.818-9.953 17.682 1.288-2.108 2.108-4.684 2.108-7.377 0-7.846-6.44-14.286-14.286-14.286s-14.286 6.44-14.286 14.286c0 2.81.82 5.386 2.225 7.611-5.972-3.747-9.953-10.304-10.304-17.799 0-.468-.469-.936-.937-.936h-1.405c-.469 0-.937.468-.937.936.586 17.448 14.871 31.382 32.553 31.382S78.952 55.065 79.304 37.5M40.779 59.046h-1.288c-5.855-.351-10.539-5.152-10.539-11.124 0-6.206 5.035-11.124 11.124-11.124 6.206 0 11.124 5.035 11.124 11.124a11.32 11.32 0 0 1-10.421 11.124"/>
</svg>