<svg xmlns="http://www.w3.org/2000/svg" viewBox="0 0 30 30">
  <g fill="#444" stroke="none">
      <path
          d="M25.424 5.74 20.508.826A2.811 2.811 0 0 0 18.524 0H6.562A2.836 2.836 0 0 0 3.75 2.818v24.37A2.826 2.826 0 0 0 6.562 30h16.876a2.826 2.826 0 0 0 2.812-2.812V7.733a2.83 2.83 0 0 0-.826-1.993Zm-6.672-3.83a.92.92 0 0 1 .433.245l4.916 4.916c.12.119.206.269.245.434h-5.594V1.91Zm5.624 25.278a.95.95 0 0 1-.938.938H6.562a.95.95 0 0 1-.938-.938V2.818c0-.516.422-.943.938-.943h10.315v6.101c0 .767.632 1.4 1.4 1.4h6.099v17.812Z" />
      <path
          d="M8.179 22.37h-.001a.568.568 0 0 1-.4-.97l3.41-3.411a.567.567 0 1 1 .803.803l-3.41 3.411a.568.568 0 0 1-.402.167Z" />
      <path
          d="M11.59 25.78a.567.567 0 0 1-.402-.166l-3.411-3.41a.567.567 0 1 1 .804-.804l3.41 3.41a.568.568 0 0 1-.4.97h-.002Zm6.82 0a.568.568 0 0 1-.4-.97l3.41-3.41a.567.567 0 1 1 .803.803l-3.41 3.41a.568.568 0 0 1-.402.167Z" />
      <path
          d="M21.821 22.37a.567.567 0 0 1-.401-.167l-3.41-3.41a.567.567 0 1 1 .803-.804l3.41 3.41a.568.568 0 0 1-.4.97h-.002Zm-8.526 4.547a.573.573 0 0 1-.536-.758l3.41-9.664a.57.57 0 0 1 1.105.19.57.57 0 0 1-.033.189l-3.41 9.664a.569.569 0 0 1-.536.38Z" />
  </g>
</svg>