<svg xmlns="http://www.w3.org/2000/svg" viewBox="0 0 30 30">
  <g fill="#444" stroke="none">
    <path d="M15.424 1.747a14.111 14.111 0 0 0-9.806 3.567L6.51.422 4.194 0 2.626 8.586l8.589 1.567.422-2.316-4.411-.805a11.735 11.735 0 0 1 7.736-2.912c6.436 0 11.732 5.296 11.732 11.732 0 6.436-5.296 11.732-11.732 11.732-6.436 0-11.732-5.296-11.732-11.732 0-1.002.128-2.001.382-2.971l-2.279-.597A14.134 14.134 0 0 0 .87 15.87C.87 23.622 7.249 30 15 30c7.751 0 14.13-6.378 14.13-14.13 0-7.591-6.118-13.895-13.706-14.123Z"/>
    <path d="m23.79 12.38-2.118-2.117-8.306 8.307-3.304-3.302-2.12 2.12 5.428 5.429 2.12-2.121-.008-.008 8.308-8.307v-.001Z"/>
  </g>
</svg>