<svg xmlns="http://www.w3.org/2000/svg" viewBox="0 0 30 30" class="tm-resource-icon">
    <g fill="#444">
      <path d="M15.363 1.732a13.97 13.97 0 0 0-9.718 3.536L6.53.418 4.234 0 2.68 8.51l8.513 1.554.418-2.297-4.374-.796a11.622 11.622 0 0 1 15.176-.136 11.62 11.62 0 0 1 3.975 7.05 11.62 11.62 0 0 1-1.592 7.94 11.61 11.61 0 0 1-6.385 4.973 11.62 11.62 0 0 1-13.949-5.976 11.63 11.63 0 0 1-.805-8.053l-2.259-.593a13.996 13.996 0 0 0 5.722 15.17 14.016 14.016 0 0 0 8.17 2.385 14.032 14.032 0 0 0 8.04-2.784 14.033 14.033 0 0 0 4.945-6.927A14.009 14.009 0 0 0 15.363 1.732z"/>
      <path d="m23.654 12.271-2.096-2.1-8.237 8.234-3.273-3.273-2.1 2.103 5.38 5.38 2.102-2.104-.01-.006 8.234-8.234z"/>
    </g>
</svg>