<svg xmlns="http://www.w3.org/2000/svg" viewBox="0 0 61 82" class="tm-resource-icon">
  <g fill="#444" fill-rule="nonzero">
    <path d="M58.7 15.547 45.387 2.237A7.612 7.612 0 0 0 40.012 0H7.616C3.438.015.007 3.453 0 7.631v66.003c.002 4.178 3.438 7.614 7.616 7.616h45.706c4.177-.002 7.614-3.438 7.615-7.616v-52.69a7.662 7.662 0 0 0-2.237-5.397ZM40.631 5.172c.445.11.85.34 1.172.665L55.116 19.15c.327.322.558.729.665 1.175h-15.15V5.172Zm15.231 68.462a2.561 2.561 0 0 1-2.54 2.541H7.616a2.562 2.562 0 0 1-2.541-2.541V7.631c0-1.397 1.144-2.553 2.541-2.553h27.937v16.516a3.79 3.79 0 0 0 3.806 3.797h16.504l-.001 48.243Z"/>
    <path d="M11.994 60.585a1.538 1.538 0 0 1-1.088-2.628l9.237-9.238a1.538 1.538 0 0 1 2.177 0 1.538 1.538 0 0 1 0 2.177l-9.237 9.238c-.301.3-.695.451-1.089.451Z"/>
    <path d="M21.231 69.822c-.394 0-.788-.151-1.088-.451l-9.237-9.237a1.538 1.538 0 0 1 0-2.177 1.538 1.538 0 0 1 2.177 0l9.237 9.237a1.538 1.538 0 0 1-1.089 2.628ZM39.706 69.822a1.538 1.538 0 0 1-1.088-2.628l9.237-9.237a1.538 1.538 0 0 1 2.177 0 1.538 1.538 0 0 1 0 2.177l-9.237 9.237c-.301.3-.695.451-1.089.451Z"/>
    <path d="M48.943 60.585c-.394 0-.788-.151-1.088-.451l-9.237-9.238a1.538 1.538 0 0 1 0-2.177 1.538 1.538 0 0 1 2.177 0l9.237 9.238a1.538 1.538 0 0 1-1.089 2.628ZM25.85 72.901a1.544 1.544 0 0 1-1.452-2.054l9.238-26.172a1.539 1.539 0 1 1 2.903 1.025l-9.237 26.173a1.539 1.539 0 0 1-1.452 1.028Z"/>
  </g>
</svg>