<svg xmlns="http://www.w3.org/2000/svg" xml:space="preserve" fill-rule="evenodd" stroke-linejoin="round" stroke-miterlimit="2" clip-rule="evenodd" viewBox="0 0 125 125">
    <g fill="#444">
      <path fill-rule="nonzero" d="M62.498 12.097c-27.837 0-50.401 22.564-50.401 50.401 0 27.836 22.564 50.4 50.401 50.4 27.836 0 50.4-22.564 50.4-50.4 0-3.715-.398-7.33-1.158-10.804l11.818-2.581A62.719 62.719 0 0 1 125 62.498c0 34.516-27.986 62.497-62.502 62.497C27.981 124.995 0 97.014 0 62.498 0 27.981 27.981 0 62.498 0c15.292 0 29.316 5.498 40.178 14.625l-7.781 9.261a50.176 50.176 0 0 0-32.397-11.789Z"/>
      <path fill-rule="nonzero" d="M106.852 20.156c-3.32 0-6.053 2.733-6.053 6.054 0 3.32 2.733 6.053 6.053 6.053s6.051-2.732 6.051-6.051-2.731-6.051-6.051-6.051v-.005Zm-18.147 6.056c0-9.955 8.192-18.147 18.147-18.147 9.956 0 18.148 8.192 18.148 18.147 0 9.956-8.192 18.148-18.148 18.148-9.955 0-18.147-8.192-18.147-18.148Z"/>
      <circle cx="62.495" cy="62.495" r="24.193"/>
    </g>
  </svg>