<svg xmlns="http://www.w3.org/2000/svg" xml:space="preserve" fill-rule="evenodd" stroke-linejoin="round" stroke-miterlimit="2" clip-rule="evenodd" viewBox="0 0 125 125">
    <path fill="#444" fill-rule="nonzero" d="M62.5 1.542C27.968 1.542 0 29.51 0 64.042c0 27.653 17.887 51.012 42.733 59.297 3.132.544 4.299-1.331 4.299-2.968 0-1.486-.08-6.414-.08-11.642-15.702 2.884-19.762-3.83-21.014-7.347-.704-1.8-3.751-7.342-6.405-8.829-2.19-1.172-5.312-4.065-.075-4.14 4.918-.079 8.44 4.534 9.607 6.41 5.626 9.457 14.61 6.794 18.206 5.157.539-4.065 2.185-6.798 3.981-8.36-13.907-1.561-28.437-6.953-28.437-30.86 0-6.794 2.424-12.425 6.405-16.8-.624-1.561-2.813-7.961.623-16.56 0 0 5.238-1.641 17.189 6.404 4.998-1.401 10.315-2.109 15.623-2.109 5.312 0 10.624.708 15.627 2.109 11.947-8.125 17.184-6.4 17.184-6.4 3.442 8.595 1.252 15.004.628 16.556 3.981 4.379 6.405 9.926 6.405 16.8 0 23.987-14.605 29.299-28.516 30.86 2.269 1.951 4.219 5.702 4.219 11.563 0 8.355-.079 15.074-.079 17.188 0 1.641 1.172 3.592 4.294 2.968C107.77 114.74 124.95 90.817 125 64.046c0-34.532-27.968-62.5-62.5-62.5v-.004Z"/>
  </svg>