<svg viewBox="0 0 30 30" xmlns="http://www.w3.org/2000/svg">
  <g fill="#444" stroke="#444">
    <path stroke="none" d="M9.327 12.873c0 .32.035.58.095.77.07.19.156.397.277.622.043.07.06.138.06.199 0 .086-.051.173-.164.26l-.545.362a.415.415 0 0 1-.224.078c-.087 0-.173-.043-.26-.12a2.675 2.675 0 0 1-.311-.407 6.694 6.694 0 0 1-.268-.51c-.675.795-1.522 1.193-2.543 1.193-.726 0-1.305-.208-1.729-.623-.424-.415-.64-.968-.64-1.66 0-.735.26-1.332.787-1.781.527-.45 1.228-.675 2.119-.675.294 0 .596.026.916.07.32.043.649.112.995.19v-.632c0-.657-.139-1.115-.407-1.383-.277-.268-.743-.398-1.41-.398-.302 0-.613.035-.933.112a6.89 6.89 0 0 0-.934.294c-.138.061-.242.096-.303.113a.53.53 0 0 1-.138.026c-.121 0-.182-.087-.182-.268V8.28c0-.138.018-.242.06-.303a.647.647 0 0 1 .243-.181 4.978 4.978 0 0 1 1.09-.39 5.243 5.243 0 0 1 1.348-.164c1.03 0 1.782.234 2.266.7.476.468.718 1.177.718 2.128v2.802h.017Zm-3.51 1.314c.285 0 .579-.052.89-.155.311-.104.588-.295.821-.554.139-.164.243-.346.294-.553.052-.208.087-.459.087-.753v-.363a7.221 7.221 0 0 0-.796-.147 6.516 6.516 0 0 0-.812-.052c-.58 0-1.004.113-1.289.346-.285.234-.424.562-.424.995 0 .406.104.709.32.916.208.216.51.32.908.32Zm6.943.934c-.156 0-.26-.026-.329-.086-.069-.052-.13-.173-.181-.338l-2.032-6.684a1.515 1.515 0 0 1-.078-.346c0-.138.07-.216.207-.216h.848c.164 0 .277.026.337.086.07.052.121.173.173.338l1.453 5.724 1.349-5.724c.043-.173.095-.286.164-.338.07-.051.19-.086.346-.086h.692c.164 0 .276.026.346.086.069.052.13.173.164.338l1.366 5.793 1.496-5.793c.052-.173.113-.286.173-.338.07-.051.182-.086.337-.086h.805c.138 0 .216.07.216.216 0 .043-.009.087-.018.139a1.232 1.232 0 0 1-.06.216l-2.084 6.684c-.052.173-.112.285-.182.337a.553.553 0 0 1-.328.087h-.744c-.164 0-.277-.026-.346-.087-.069-.06-.13-.173-.164-.346l-1.34-5.577-1.332 5.569c-.043.173-.095.285-.164.346-.07.06-.19.086-.346.086h-.744Zm11.112.234c-.45 0-.9-.052-1.332-.156-.432-.104-.77-.216-.994-.346-.139-.078-.234-.164-.268-.242a.61.61 0 0 1-.052-.242v-.441c0-.182.069-.268.199-.268.052 0 .103.008.155.026.052.017.13.051.216.086.294.13.614.234.952.303.346.069.683.104 1.029.104.544 0 .968-.096 1.262-.286a.931.931 0 0 0 .45-.821.842.842 0 0 0-.234-.606c-.155-.164-.45-.311-.873-.45l-1.254-.388c-.631-.2-1.098-.493-1.383-.882a2.06 2.06 0 0 1-.433-1.254c0-.364.078-.683.234-.96.155-.277.363-.519.622-.71.26-.198.554-.345.9-.449.346-.104.709-.147 1.09-.147.19 0 .388.009.579.035.198.026.38.06.562.095.173.043.337.086.493.138.155.052.276.104.363.156.12.069.207.138.26.216.051.07.077.164.077.285v.407c0 .181-.07.276-.199.276-.07 0-.182-.034-.329-.103a3.956 3.956 0 0 0-1.66-.338c-.493 0-.882.078-1.15.243-.268.164-.406.415-.406.77 0 .241.086.449.26.613.172.164.492.329.95.476l1.228.389c.623.199 1.072.475 1.34.83.269.355.398.761.398 1.21 0 .373-.078.71-.225 1.004a2.326 2.326 0 0 1-.63.76 2.787 2.787 0 0 1-.96.485c-.39.121-.796.182-1.237.182ZM25.506 19.557c-2.845 2.101-6.978 3.217-10.532 3.217-4.981 0-9.469-1.842-12.859-4.903-.268-.242-.026-.57.294-.38 3.667 2.127 8.19 3.415 12.867 3.415 3.157 0 6.624-.657 9.815-2.006.476-.216.882.311.415.657Zm1.185-1.349c-.363-.467-2.404-.225-3.33-.112-.276.034-.32-.208-.069-.39 1.626-1.14 4.298-.812 4.61-.432.31.39-.087 3.061-1.609 4.341-.233.2-.458.095-.354-.164.345-.856 1.115-2.785.752-3.243Z"/>
  </g>
</svg>
