<svg xmlns="http://www.w3.org/2000/svg" xml:space="preserve" fill-rule="evenodd" stroke-linejoin="round" stroke-miterlimit="2" clip-rule="evenodd" viewBox="0 0 125 125">
    <g fill="#444" fill-rule="nonzero">
      <path d="M111.813 26.437 69.075 1.762a13.15 13.15 0 0 0-13.15 0L13.187 26.437a13.185 13.185 0 0 0-6.575 11.388v49.35a13.185 13.185 0 0 0 6.575 11.388l42.738 24.675a13.15 13.15 0 0 0 13.15 0l42.738-24.675a13.185 13.185 0 0 0 6.575-11.388v-49.35a13.185 13.185 0 0 0-6.575-11.388Zm-2.191 60.738a4.384 4.384 0 0 1-2.192 3.796l-42.738 24.675a4.385 4.385 0 0 1-4.384 0L17.57 90.971a4.384 4.384 0 0 1-2.192-3.796v-49.35c0-1.566.836-3.013 2.192-3.796L60.308 9.354a4.385 4.385 0 0 1 4.384 0l42.738 24.675a4.384 4.384 0 0 1 2.192 3.796v49.35Z"/>
      <path d="M87.728 76.788h-3.14c-.738 0-1.463.186-2.11.54L63.541 87.723 41.679 75.1V49.92l21.862-12.622 18.947 10.361a4.379 4.379 0 0 0 2.103.537h3.137a2.191 2.191 0 0 0 2.192-2.191v-2.972c0-.801-.437-1.538-1.14-1.923L67.752 29.609a8.808 8.808 0 0 0-8.594.098L37.295 42.329a8.793 8.793 0 0 0-4.383 7.592V75.1a8.767 8.767 0 0 0 4.383 7.592l21.863 12.623a8.815 8.815 0 0 0 8.595.096L88.782 83.87a2.192 2.192 0 0 0 1.137-1.921v-2.97c0-1.21-.981-2.191-2.191-2.191Z"/>
    </g>
  </svg>