<svg xmlns="http://www.w3.org/2000/svg" xml:space="preserve" fill-rule="evenodd" stroke-linejoin="round" stroke-miterlimit="2" clip-rule="evenodd" viewBox="0 0 125 125">
    <path fill="#444" fill-rule="nonzero" d="M64.605.007h-44.47c-.854 0-1.673.339-2.278.943a3.224 3.224 0 0 0-.943 2.278v79.029A42.785 42.785 0 0 0 59.629 125a3.221 3.221 0 0 0 3.222-3.222V85.479h1.727a42.752 42.752 0 0 0 30.717-12.243 42.734 42.734 0 0 0 12.791-30.493A42.747 42.747 0 0 0 81.168 3.037a42.733 42.733 0 0 0-16.59-3.03h.027ZM56.38 118.42a36.341 36.341 0 0 1-32.9-32.9h32.9v32.9Zm0-49.803L25.358 6.45h31.077l-.055 62.167Zm8.225 10.419h-1.727V6.45h1.727a36.294 36.294 0 0 1 34.174 22.239 36.29 36.29 0 0 1 0 28.108 36.29 36.29 0 0 1-20.067 19.681 36.295 36.295 0 0 1-14.107 2.558Z"/>
  </svg>