<svg xmlns="http://www.w3.org/2000/svg" xml:space="preserve" fill-rule="evenodd" clip-rule="evenodd" viewBox="0 0 125 125">
    <path fill="none" stroke="#444" stroke-width="9.6" d="M107.665 4.774H17.119c-6.771.003-12.342 5.574-12.345 12.345v90.546c.003 6.771 5.574 12.342 12.345 12.345h90.546c6.771-.003 12.342-5.574 12.345-12.345V17.119c-.003-6.771-5.574-12.342-12.345-12.345Z"/>
    <path fill="#444" fill-rule="nonzero" d="M101.842 78.376c0 1.281-1.099 1.824-2.375 2.376-5.117 2.193-10.599 4.204-16.445 4.204-8.222 0-12.057-5.116-21.926-5.116-7.128 0-14.616 2.558-20.644 5.299-.365.182-.735.182-1.099.365V99.39c0 3.816-2.876 6.211-6.029 6.211h-.048c-3.381 0-6.163-2.782-6.163-6.163V32.517a10.215 10.215 0 0 1-4.023-8.044c0-5.664 4.57-10.234 10.234-10.234s10.233 4.57 10.233 10.234c0 3.288-1.464 6.211-4.022 8.04v5.664c.739-.245 10.488-5.117 20.467-5.117 11.644 0 17.423 4.934 22.655 4.934 6.941 0 14.616-4.934 16.445-4.934 1.459 0 2.736 1.094 2.736 2.376v42.935l.004.005Z"/>
  </svg>