<svg viewBox="0 0 612 400" xmlns="http://www.w3.org/2000/svg" fill-rule="evenodd" clip-rule="evenodd" stroke-linejoin="round" stroke-miterlimit="1.414">
  <path fill="none" d="M0 0h612v400H0z"/>
  <g fill-rule="nonzero">
    <g fill="#fff">
      <path d="M49.785 273.421h11.471v78.89h36.322l-.119 8.672H49.785v-87.562zM147.878 273.421l31.305 87.562h-12.188l-24.255-70.58-.836-3.493-.837 3.493-13.381 38.661-1.315 2.53 1.435-.24h16.13c2.867 0 5.057.863 6.57 2.589 1.514 1.728 2.708 3.754 3.586 6.083h-30.11l-7.169 20.957h-11.351l31.305-87.562h11.111zM206.902 291.005l-1.673-4.095.239 4.095v69.978h-9.679v-87.562h11.352l42.177 67.929 1.434 3.975-.24-4.215v-67.689h10.037v87.562h-10.156l-43.491-69.978zM316.347 362.428c-2.709 0-5.298-.121-7.766-.361-2.47-.241-5.457-.804-8.962-1.686 1.116-2.088 2.588-3.813 4.421-5.18 1.832-1.364 4.102-1.927 6.811-1.686 1.273.162 2.25.241 2.928.241h2.449c3.823 0 7.388-.963 10.693-2.891 3.304-1.926 6.193-4.556 8.663-7.889 2.468-3.331 4.4-7.226 5.795-11.683 1.393-4.456 2.091-9.214 2.091-14.272 0-11.642-2.929-20.614-8.782-26.919-5.855-6.303-14.678-9.455-26.466-9.455-2.39 0-4.739.081-7.049.241-2.311.162-4.421.361-6.333.602v79.493h-11.35v-86.121c3.823-.881 8.024-1.582 12.605-2.104 4.579-.521 8.621-.783 12.127-.783 7.567 0 14.297 1.024 20.193 3.068 5.894 2.045 10.852 5.013 14.874 8.901 4.023 3.888 7.09 8.619 9.202 14.194 2.109 5.574 3.166 11.888 3.166 18.943 0 6.576-1.057 12.63-3.166 18.162-2.112 5.534-4.958 10.325-8.543 14.375-3.584 4.05-7.748 7.198-12.487 9.443-4.739 2.243-9.778 3.367-15.114 3.367M414.083 310.878v8.431h-29.512c.875-2.328 2.091-4.315 3.644-5.961 1.554-1.646 3.764-2.47 6.632-2.47h19.236zm-45.403-37.457h49.465v8.671H380.03v70.219h39.908v8.672H368.68v-87.562zM493.657 297.835c0 4.812-1.335 9.042-4.003 12.69-2.669 3.649-6.074 6.515-10.216 8.6l-2.867.962 2.39.963c2.946 2.007 5.197 4.451 6.751 7.338 1.552 2.887 2.867 6.073 3.942 9.562a238.122 238.122 0 0 1 3.106 11.066c.996 3.888 2.41 7.878 4.243 11.967h-11.949c-1.594-3.452-2.849-7.146-3.763-11.081a168.779 168.779 0 0 0-3.047-11.321c-1.116-3.614-2.529-6.824-4.241-9.636-1.714-2.81-4.122-4.818-7.23-6.022-.238.081-.596.12-1.075.12-1.753.162-3.625.181-5.615.06-1.993-.12-4.104-.46-6.333-1.023a12.47 12.47 0 0 1 4.003-5.179c1.792-1.364 3.962-2.087 6.511-2.168 2.071-.079 4.141-.561 6.213-1.445a19.626 19.626 0 0 0 5.557-3.554c1.631-1.485 2.966-3.271 4.002-5.36 1.034-2.086 1.554-4.375 1.554-6.865 0-2.408-.52-4.636-1.554-6.684a17.59 17.59 0 0 0-4.182-5.36c-1.753-1.524-3.804-2.729-6.153-3.613-2.351-.883-4.88-1.325-7.587-1.325-2.231 0-4.263.041-6.094.121-1.833.08-4.182.402-7.049.963v79.372H437.62v-86.361c4.46-.881 8.561-1.562 12.307-2.044 3.743-.482 7.805-.723 12.187-.723 4.779 0 9.12.684 13.023 2.045 3.902 1.363 7.229 3.228 9.977 5.594 2.748 2.365 4.857 5.111 6.333 8.239a22.872 22.872 0 0 1 2.21 9.863v.239zM537.984 280.647c-2.23 0-4.202.342-5.914 1.024-1.715.682-3.166 1.626-4.361 2.83a11.84 11.84 0 0 0-2.689 4.155c-.597 1.566-.895 3.234-.895 4.999 0 3.131.995 5.801 2.986 8.009 1.99 2.21 4.5 4.236 7.527 6.083a165.537 165.537 0 0 0 9.739 5.479 65.946 65.946 0 0 1 9.737 6.204c3.026 2.329 5.536 5.058 7.527 8.19 1.99 3.131 2.988 6.985 2.988 11.562 0 2.972-.619 5.863-1.852 8.673-1.236 2.81-3.067 5.299-5.496 7.467-2.431 2.168-5.398 3.895-8.902 5.179-3.506 1.283-7.527 1.927-12.068 1.927-1.673 0-3.545-.102-5.615-.302a73.03 73.03 0 0 1-6.333-.903 52.54 52.54 0 0 1-6.572-1.686 49.57 49.57 0 0 1-6.331-2.529l3.106-7.828c3.584 1.606 7.188 2.769 10.813 3.492 3.624.722 6.829 1.084 9.619 1.084 5.654 0 10.036-1.423 13.142-4.268 3.107-2.846 4.66-6.354 4.66-10.524 0-3.448-.997-6.315-2.987-8.599-1.992-2.284-4.462-4.351-7.408-6.195-2.948-1.844-6.174-3.628-9.678-5.352-3.506-1.724-6.732-3.687-9.678-5.892a30.794 30.794 0 0 1-7.408-7.876c-1.992-3.047-2.987-6.817-2.987-11.307 0-2.966.577-5.771 1.732-8.418 1.155-2.645 2.808-4.97 4.959-6.976 2.151-2.004 4.699-3.568 7.647-4.69 2.946-1.121 6.213-1.684 9.797-1.684 3.424 0 6.871.278 10.336.832 3.464.555 7.228 1.465 11.291 2.732l-3.226 7.758c-3.426-1.043-6.593-1.747-9.499-2.108-2.909-.361-5.478-.542-7.707-.542"/>
    </g>
    <path d="M369.924 93.634c-17.906-35.423-54.489-58.085-94.364-58.085-58.287 0-105.708 47.422-105.708 105.709 0 13.982 2.7 27.559 8.028 40.405h-40.995l59.741-139.647H42.001v58.84h62.856L43.595 240.877h151.988v-30.526c20.132 23.341 48.967 36.615 79.977 36.615 39.876 0 76.458-22.661 94.364-58.083 17.91 35.422 54.492 58.083 94.365 58.083 58.289 0 105.71-47.42 105.71-105.708 0-58.287-47.421-105.709-105.71-105.709-39.872 0-76.455 22.663-94.365 58.085zm51.295 48.259c0-24.099 19.606-43.703 43.705-43.703 24.096 0 43.699 19.604 43.699 43.703 0 24.096-19.603 43.701-43.699 43.701-24.099 0-43.705-19.605-43.705-43.701zm-190.694 0c0-24.099 19.606-43.703 43.704-43.703 24.096 0 43.701 19.604 43.701 43.703 0 24.096-19.605 43.701-43.701 43.701-24.098 0-43.704-19.605-43.704-43.701z" fill="#fff"/>
    <path d="M274.229 183.572c-22.983 0-41.681-18.697-41.681-41.679 0-22.983 18.698-41.681 41.681-41.681 22.982 0 41.678 18.698 41.678 41.681 0 22.982-18.696 41.679-41.678 41.679m190.695 0c-22.984 0-41.683-18.697-41.683-41.679 0-22.983 18.699-41.681 41.683-41.681 22.981 0 41.677 18.698 41.677 41.681 0 22.982-18.696 41.679-41.677 41.679m-.635-150.044c-21.065 0-41.468 6.085-59.004 17.597a107.963 107.963 0 0 0-35.36 38.176 107.962 107.962 0 0 0-35.36-38.176c-17.536-11.512-37.94-17.597-59.005-17.597-28.776 0-55.83 11.207-76.177 31.555-20.347 20.347-31.553 47.4-31.553 76.175 0 13.24 2.375 26.123 7.067 38.383h-34.948L197.28 45.629l2.41-5.635H39.98v62.885h61.785L42.982 237.235l-2.478 5.665h157.102v-27.331c8.573 8.979 18.698 16.499 29.74 22.04 15.046 7.551 31.268 11.379 48.214 11.379 21.065 0 41.469-6.084 59.005-17.596a107.962 107.962 0 0 0 35.36-38.176 107.963 107.963 0 0 0 35.36 38.176c17.536 11.512 37.939 17.596 59.004 17.596 28.777 0 55.83-11.206 76.178-31.554 20.348-20.347 31.554-47.401 31.554-76.176 0-59.402-48.328-107.73-107.732-107.73m-190.06 154.088c25.251 0 45.722-20.471 45.722-45.723 0-25.253-20.471-45.725-45.722-45.725-25.252 0-45.725 20.472-45.725 45.725 0 25.252 20.473 45.723 45.725 45.723m190.695 0c25.25 0 45.721-20.471 45.721-45.723 0-25.253-20.471-45.725-45.721-45.725-25.252 0-45.727 20.472-45.727 45.725 0 25.252 20.475 45.723 45.727 45.723m-.635-150.044c57.266 0 103.688 46.425 103.688 103.686 0 57.263-46.422 103.686-103.688 103.686-41.939 0-78.031-24.91-94.364-60.728-16.33 35.818-52.426 60.728-94.365 60.728-33.366 0-63.034-15.778-81.998-40.26v34.172H46.687l61.262-140.021H44.024V44.038h149.538L133.82 183.685h47.135a103.286 103.286 0 0 1-9.081-42.427c0-57.261 46.42-103.686 103.686-103.686 41.939 0 78.035 24.912 94.365 60.729 16.333-35.817 52.425-60.729 94.364-60.729" fill="#3d3d3d"/>
  </g>
</svg>
