<svg xmlns="http://www.w3.org/2000/svg" xml:space="preserve" fill-rule="evenodd" stroke-linejoin="round" stroke-miterlimit="2" clip-rule="evenodd" viewBox="0 0 618 150">
    <path fill="none" d="M0 0h618v150H0z"/>
    <g fill-rule="nonzero">
      <g fill="#fff">
        <path d="M359.373 114.905c-2.406 0-4.705-.106-6.899-.319-2.193-.212-4.846-.707-7.96-1.486.991-1.839 2.3-3.36 3.927-4.563 1.628-1.203 3.644-1.698 6.05-1.486 1.132.142 1.998.212 2.6.212h2.175c3.397 0 6.563-.849 9.499-2.547 2.936-1.698 5.501-4.015 7.694-6.951 2.194-2.936 3.91-6.368 5.148-10.295 1.238-3.927 1.857-8.119 1.857-12.576 0-10.259-2.6-18.166-7.801-23.72-5.2-5.554-13.036-8.331-23.507-8.331-2.123 0-4.21.071-6.262.212-2.052.142-3.927.318-5.625.531v70.045h-10.082V37.642c3.396-.778 7.128-1.397 11.197-1.857 4.068-.46 7.659-.69 10.772-.69 6.721 0 12.7.902 17.936 2.707 5.235 1.804 9.64 4.422 13.213 7.853 3.573 3.432 6.297 7.606 8.172 12.523 1.875 4.918 2.812 10.49 2.812 16.716 0 5.802-.937 11.143-2.812 16.025-1.875 4.882-4.405 9.11-7.588 12.683-3.184 3.573-6.881 6.35-11.091 8.331-4.21 1.981-8.685 2.972-13.425 2.972ZM404.141 75c0-6.792 1.079-12.7 3.237-17.724 2.158-5.023 4.97-9.197 8.437-12.523 3.467-3.325 7.305-5.802 11.515-7.429 4.21-1.627 8.402-2.441 12.576-2.441 5.731 0 10.825 1.061 15.283 3.184 4.457 2.123 8.207 5.006 11.25 8.65 3.042 3.643 5.341 7.906 6.898 12.788 1.557 4.882 2.335 10.047 2.335 15.495 0 6.156-.955 11.692-2.866 16.609-1.91 4.918-4.51 9.127-7.8 12.63-3.29 3.502-7.093 6.191-11.409 8.065-4.316 1.875-8.88 2.813-13.691 2.813-4.952 0-9.604-.92-13.956-2.759a33.065 33.065 0 0 1-11.356-7.907c-3.219-3.432-5.766-7.624-7.641-12.576-1.875-4.953-2.812-10.578-2.812-16.875Zm10.825 0c0 4.811.619 9.198 1.857 13.16 1.238 3.962 2.972 7.376 5.2 10.242 2.229 2.865 4.865 5.094 7.907 6.686 3.042 1.592 6.368 2.388 9.976 2.388 3.75 0 7.164-.849 10.242-2.548 3.077-1.698 5.695-3.997 7.853-6.898 2.158-2.901 3.839-6.332 5.041-10.294 1.203-3.963 1.805-8.208 1.805-12.736 0-4.953-.655-9.428-1.964-13.425-1.309-3.998-3.095-7.412-5.359-10.242-2.264-2.83-4.918-4.988-7.96-6.474a21.724 21.724 0 0 0-9.658-2.228c-3.396 0-6.615.742-9.658 2.228-3.042 1.486-5.695 3.644-7.959 6.474-2.264 2.83-4.051 6.244-5.36 10.242-1.309 3.997-1.963 8.472-1.963 13.425ZM526.42 114.905c-5.448 0-10.507-.92-15.176-2.76-4.67-1.839-8.738-4.475-12.205-7.906-3.467-3.432-6.173-7.589-8.119-12.471-1.946-4.882-2.919-10.4-2.919-16.556 0-5.943.973-11.373 2.919-16.291 1.946-4.917 4.652-9.144 8.119-12.682 3.467-3.538 7.535-6.279 12.205-8.225 4.669-1.946 9.728-2.919 15.176-2.919 2.972 0 6.032.301 9.18.902 3.149.602 6.351 1.504 9.605 2.707l-2.759 6.898c-3.113-.99-5.943-1.698-8.491-2.122a45.717 45.717 0 0 0-7.535-.637c-3.679 0-7.181.672-10.507 2.016-3.325 1.345-6.261 3.361-8.808 6.05-2.547 2.688-4.564 6.067-6.05 10.135-1.485 4.068-2.228 8.791-2.228 14.168 0 4.811.743 9.18 2.228 13.107 1.486 3.927 3.503 7.305 6.05 10.136 2.547 2.83 5.483 5.005 8.808 6.527a24.973 24.973 0 0 0 10.507 2.281c2.477 0 5.024-.318 7.642-.955 2.617-.637 5.412-1.698 8.384-3.184l2.759 6.899c-3.325 1.769-6.544 3.024-9.658 3.767-3.113.743-6.155 1.115-9.127 1.115ZM579.379 42.843c-1.981 0-3.732.3-5.254.902-1.521.601-2.812 1.433-3.873 2.494a10.399 10.399 0 0 0-2.388 3.661 12.158 12.158 0 0 0-.796 4.405c0 2.759.884 5.112 2.653 7.057 1.769 1.946 3.998 3.733 6.686 5.36a148.532 148.532 0 0 0 8.65 4.829 58.616 58.616 0 0 1 8.649 5.465c2.689 2.052 4.918 4.458 6.686 7.217 1.769 2.76 2.654 6.156 2.654 10.189 0 2.618-.549 5.165-1.645 7.641-1.097 2.476-2.724 4.67-4.882 6.58-2.158 1.91-4.794 3.432-7.907 4.564-3.113 1.132-6.686 1.698-10.719 1.698-1.486 0-3.148-.089-4.988-.266a65.046 65.046 0 0 1-5.625-.796 47.129 47.129 0 0 1-5.837-1.485 44.386 44.386 0 0 1-5.625-2.229l2.759-6.899c3.184 1.415 6.386 2.441 9.605 3.078 3.219.637 6.067.955 8.544.955 5.023 0 8.914-1.256 11.674-3.767 2.759-2.512 4.139-5.607 4.139-9.287 0-3.042-.885-5.571-2.653-7.588-1.769-2.016-3.963-3.838-6.58-5.465-2.618-1.628-5.484-3.202-8.597-4.723-3.113-1.521-5.978-3.255-8.596-5.201a27.265 27.265 0 0 1-6.58-6.951c-1.769-2.689-2.654-6.014-2.654-9.976 0-2.618.513-5.094 1.539-7.429a18.403 18.403 0 0 1 4.405-6.156c1.91-1.769 4.174-3.148 6.792-4.139 2.618-.99 5.519-1.486 8.703-1.486 3.042 0 6.102.248 9.18.743 3.077.496 6.421 1.309 10.029 2.441l-2.866 6.899c-3.042-.92-5.854-1.539-8.437-1.858-2.582-.318-4.864-.477-6.845-.477Z"/>
      </g>
      <g fill="#fff">
        <path d="M15.022 102.525h4.456v30.396h14.11l-.046 3.341h-18.52v-33.737ZM53.128 102.525l12.161 33.737h-4.735l-9.422-27.194-.325-1.346-.325 1.346-5.198 14.896-.511.974.557-.092h6.266c1.114 0 1.965.332 2.552.997a7.563 7.563 0 0 1 1.394 2.344H43.845l-2.785 8.075h-4.41l12.161-33.737h4.317ZM76.057 109.3l-.65-1.578.093 1.578v26.962h-3.76v-33.737h4.409l16.385 26.172.557 1.532-.093-1.624v-26.08h3.899v33.737h-3.946L76.057 109.3ZM118.572 136.819c-1.052 0-2.058-.047-3.017-.14-.959-.092-2.12-.309-3.481-.649a5.956 5.956 0 0 1 1.717-1.996c.712-.526 1.594-.742 2.646-.65.495.063.874.093 1.138.093h.951c1.485 0 2.87-.371 4.154-1.114 1.283-.742 2.406-1.755 3.365-3.039.959-1.284 1.709-2.784 2.251-4.502.541-1.717.813-3.55.813-5.499 0-4.485-1.138-7.942-3.412-10.371-2.274-2.429-5.702-3.643-10.281-3.643-.929 0-1.841.031-2.738.093-.898.062-1.718.139-2.461.231v30.629h-4.409V103.08c1.485-.34 3.117-.61 4.897-.811 1.779-.201 3.349-.302 4.711-.302 2.939 0 5.554.395 7.844 1.182 2.29.788 4.216 1.932 5.778 3.43 1.563 1.498 2.754 3.321 3.575 5.469.819 2.148 1.23 4.58 1.23 7.299 0 2.533-.411 4.866-1.23 6.997-.821 2.133-1.926 3.978-3.319 5.539a15.002 15.002 0 0 1-4.851 3.638 13.637 13.637 0 0 1-5.871 1.298M156.54 116.957v3.248h-11.465c.34-.897.812-1.662 1.416-2.297.603-.634 1.462-.951 2.576-.951h7.473Zm-17.638-14.432h19.215v3.34h-14.806v27.056h15.503v3.341h-19.912v-33.737ZM187.451 111.931c0 1.854-.518 3.484-1.555 4.889-1.036 1.406-2.359 2.511-3.968 3.314l-1.114.371.929.371c1.144.773 2.018 1.715 2.622 2.827a20.377 20.377 0 0 1 1.531 3.684c.418 1.345.82 2.766 1.207 4.264a28.596 28.596 0 0 0 1.648 4.611h-4.641a21.89 21.89 0 0 1-1.462-4.27 65.103 65.103 0 0 0-1.184-4.362c-.433-1.392-.982-2.629-1.647-3.712-.666-1.083-1.602-1.857-2.809-2.321a1.371 1.371 0 0 1-.418.047 14.56 14.56 0 0 1-2.181.023 13.594 13.594 0 0 1-2.46-.394c.34-.805.859-1.47 1.555-1.996.696-.525 1.539-.804 2.529-.835a6.827 6.827 0 0 0 2.414-.557 7.637 7.637 0 0 0 2.159-1.369 6.93 6.93 0 0 0 1.554-2.065 5.834 5.834 0 0 0 .604-2.646c0-.927-.202-1.786-.604-2.575a6.776 6.776 0 0 0-1.624-2.065 7.786 7.786 0 0 0-2.391-1.392 8.376 8.376 0 0 0-2.947-.511c-.867 0-1.656.016-2.367.047-.712.031-1.625.155-2.739.371v30.582h-4.409v-33.275a73.137 73.137 0 0 1 4.781-.787 37.416 37.416 0 0 1 4.734-.279c1.857 0 3.543.264 5.059.788 1.516.525 2.808 1.244 3.876 2.155 1.067.912 1.887 1.97 2.46 3.175a8.753 8.753 0 0 1 .858 3.8v.092ZM204.671 105.309c-.866 0-1.632.132-2.297.394a4.902 4.902 0 0 0-1.694 1.091 4.536 4.536 0 0 0-1.045 1.601 5.32 5.32 0 0 0-.348 1.926c0 1.206.387 2.235 1.16 3.086.773.851 1.748 1.632 2.924 2.343a64.635 64.635 0 0 0 3.784 2.111 25.695 25.695 0 0 1 3.782 2.391 12.293 12.293 0 0 1 2.924 3.155c.773 1.207 1.161 2.692 1.161 4.455a8.184 8.184 0 0 1-.72 3.342c-.48 1.082-1.191 2.041-2.135 2.877-.944.835-2.097 1.501-3.458 1.995-1.362.495-2.924.743-4.688.743-.65 0-1.377-.04-2.181-.117a28.184 28.184 0 0 1-2.46-.348 20.523 20.523 0 0 1-2.553-.649 19.352 19.352 0 0 1-2.46-.975l1.207-3.016a19.785 19.785 0 0 0 4.2 1.346c1.408.278 2.653.417 3.737.417 2.197 0 3.899-.548 5.105-1.644 1.207-1.097 1.811-2.448 1.811-4.055 0-1.328-.388-2.433-1.161-3.313-.774-.88-1.733-1.676-2.877-2.387a42.644 42.644 0 0 0-3.76-2.062 23.814 23.814 0 0 1-3.76-2.27 11.903 11.903 0 0 1-2.877-3.035c-.774-1.174-1.161-2.626-1.161-4.356 0-1.143.224-2.224.673-3.244a8.06 8.06 0 0 1 1.926-2.688c.836-.772 1.826-1.374 2.971-1.807 1.145-.432 2.414-.649 3.806-.649 1.33 0 2.669.108 4.015.321 1.346.214 2.808.564 4.386 1.053l-1.253 2.989c-1.331-.402-2.561-.673-3.69-.812a24.87 24.87 0 0 0-2.994-.209"/>
      </g>
      <path fill="#fff" d="M139.051 35.712c-6.731-13.278-20.483-21.773-35.472-21.773-21.911 0-39.737 17.776-39.737 39.624 0 5.241 1.015 10.33 3.018 15.145H51.449l22.458-52.345H15.782v22.056H39.41L16.381 90.904h57.134V79.462c7.568 8.749 18.407 13.725 30.064 13.725 14.99 0 28.741-8.495 35.472-21.772 6.733 13.277 20.485 21.772 35.473 21.772 21.912 0 39.738-17.775 39.738-39.624 0-21.848-17.826-39.624-39.738-39.624-14.988 0-28.74 8.495-35.473 21.773Zm19.283 18.089c0-9.033 7.37-16.382 16.429-16.382 9.058 0 16.427 7.349 16.427 16.382 0 9.032-7.369 16.381-16.427 16.381-9.059 0-16.429-7.349-16.429-16.381Zm-71.684 0c0-9.033 7.37-16.382 16.429-16.382 9.058 0 16.427 7.349 16.427 16.382 0 9.032-7.369 16.381-16.427 16.381-9.059 0-16.429-7.349-16.429-16.381Z"/>
      <path fill="#3d3d3d" d="M103.079 69.424c-8.64 0-15.669-7.009-15.669-15.623 0-8.615 7.029-15.624 15.669-15.624 8.639 0 15.667 7.009 15.667 15.624 0 8.614-7.028 15.623-15.667 15.623m71.684 0c-8.64 0-15.669-7.009-15.669-15.623 0-8.615 7.029-15.624 15.669-15.624 8.639 0 15.667 7.009 15.667 15.624 0 8.614-7.028 15.623-15.667 15.623m-.239-56.243a40.387 40.387 0 0 0-22.18 6.596 40.52 40.52 0 0 0-13.292 14.31 40.53 40.53 0 0 0-13.292-14.31 40.39 40.39 0 0 0-22.181-6.596c-10.817 0-20.987 4.201-28.636 11.828-7.649 7.627-11.861 17.768-11.861 28.554 0 4.963.893 9.792 2.657 14.387H52.601l21.552-50.233.906-2.112H15.022v23.572h23.225L16.15 89.539l-.931 2.123h59.056V81.418a40.875 40.875 0 0 0 11.18 8.261c5.656 2.831 11.754 4.265 18.124 4.265 7.918 0 15.589-2.28 22.181-6.595a40.53 40.53 0 0 0 13.292-14.31 40.512 40.512 0 0 0 13.292 14.31c6.592 4.315 14.262 6.595 22.18 6.595 10.818 0 20.987-4.2 28.636-11.827 7.649-7.627 11.862-17.768 11.862-28.554 0-22.266-18.167-40.382-40.498-40.382M103.079 70.94c9.492 0 17.187-7.674 17.187-17.139 0-9.466-7.695-17.14-17.187-17.14-9.493 0-17.189 7.674-17.189 17.14 0 9.465 7.696 17.139 17.189 17.139m71.684 0c9.492 0 17.187-7.674 17.187-17.139 0-9.466-7.695-17.14-17.187-17.14-9.493 0-17.189 7.674-17.189 17.14 0 9.465 7.696 17.139 17.189 17.139m-.239-56.243c21.527 0 38.978 17.402 38.978 38.866s-17.451 38.866-38.978 38.866c-15.765 0-29.333-9.338-35.472-22.764-6.139 13.426-19.708 22.764-35.473 22.764-12.543 0-23.695-5.915-30.824-15.091v12.809H17.543l23.029-52.486h-24.03v-20.54h56.213L50.297 69.466h17.719a38.621 38.621 0 0 1-3.414-15.903c0-21.464 17.45-38.866 38.977-38.866 15.765 0 29.334 9.338 35.473 22.764 6.139-13.426 19.707-22.764 35.472-22.764"/>
    </g>
  </svg>