<svg xmlns="http://www.w3.org/2000/svg" viewBox="0 0 30 30">
  <g stroke="#444" fill="#444">
    <path fill="none" stroke-width="2" d="M27.371 7.148c0 1.906-1.588 3.489-3.646 3.489-1.906 0-3.648-1.583-3.648-3.489 0-1.901 1.588-3.647 3.648-3.647 1.902 0 3.646 1.589 3.646 3.647z" transform="matrix(.86372 0 0 .88357 -15.5612161 17.802899)"/>
    <path fill="none" stroke-width="2" d="M27.371 7.148c0 1.906-1.588 3.489-3.646 3.489-1.906 0-3.648-1.583-3.648-3.489 0-1.901 1.588-3.647 3.648-3.647 1.902 0 3.646 1.589 3.646 3.647z" transform="matrix(.86372 0 0 .88357 -15.56121615 8.764207)"/>
    <path fill="none" stroke-width="2" d="M27.371 7.148c0 1.906-1.588 3.489-3.646 3.489-1.906 0-3.648-1.583-3.648-3.489 0-1.901 1.588-3.647 3.648-3.647 1.902 0 3.646 1.589 3.646 3.647z" transform="matrix(.86372 0 0 .88357 -15.56121615 -.27448)"/>
    <path stroke="none" d="M12.9513025 4.501717h16.006949v2.6h-16.006949z"/>
    <path stroke="none" d="M12.9513025 13.601274h16.006949v2.6h-16.006949z"/>
    <path stroke="none" d="M12.9513025 22.912724h16.006949v2.6h-16.006949z"/>
  </g>
</svg>
