<svg xmlns="http://www.w3.org/2000/svg" xml:space="preserve" fill-rule="evenodd" stroke-linejoin="round" stroke-miterlimit="2" clip-rule="evenodd" viewBox="0 0 30 27">
  <path fill="#444" stroke="none" d="M14.999 23.503c-.11.166-.227.329-.348.486-.985 1.28-2.299 2.206-3.876 2.359-1.513.145-3.448-.401-5.661-2.673-2.18-2.235-2.47-4.55-1.518-6.396.123-.238.273-.474.451-.704-1.364-.834-2.435-2.133-2.949-3.97C.818 11.606.32 5.46.32 4.628c0-2.023.726-3.175 1.569-3.825.876-.675 2.031-.908 3.31-.67 1.264.236 2.694.969 3.818 1.812 2.128 1.597 4.37 4.3 5.982 6.678 1.612-2.377 3.854-5.08 5.982-6.678C22.104 1.103 23.534.37 24.799.135c1.279-.239 2.434-.006 3.31.668.843.651 1.57 1.803 1.57 3.826 0 .831-.5 6.976-.78 7.976-.514 1.838-1.585 3.136-2.948 3.97.178.23.327.466.45.705.952 1.845.662 4.16-1.518 6.395-2.213 2.272-4.147 2.818-5.66 2.673-1.578-.153-2.89-1.08-3.877-2.359a9.039 9.039 0 0 1-.347-.486ZM7.816 3.546C5.718 1.97 2.32.752 2.32 4.629c0 .775.444 6.506.704 7.436.905 3.234 4.204 4.06 7.138 3.56-5.13.873-6.434 3.764-3.616 6.655 5.351 5.491 7.69-1.377 8.29-3.137.11-.323.162-.474.163-.346 0-.128.052.023.162.346.6 1.759 2.94 8.628 8.29 3.137 2.818-2.891 1.514-5.782-3.615-6.655 2.934.5 6.233-.326 7.137-3.56.261-.93.705-6.661.705-7.436 0-3.877-3.399-2.658-5.497-1.083-2.907 2.181-6.034 6.607-7.182 8.982-1.148-2.375-4.275-6.8-7.183-8.982Z"/>
</svg>