<svg xmlns="http://www.w3.org/2000/svg" xml:space="preserve" fill-rule="evenodd" stroke-linejoin="round"
  stroke-miterlimit="2" clip-rule="evenodd" viewBox="0 0 94 94">
  <path fill="#444"
    d="M53.239.506a33 33 0 0 0-6.43-.637c-9.199 0-17.539 3.769-23.554 9.844L36.77 20.634zM34.3 23.654 20.677 12.662a32.9 32.9 0 0 0-7.071 20.41c0 4.455.883 8.764 2.547 12.761zm7.837-3.41a13.5 13.5 0 0 1 4.672-.844c7.559 0 13.672 6.113 13.672 13.672 0 .66-.062 1.303-.152 1.937l15.18-18.552C71.489 9.544 65.063 4.214 57.374 1.623zm9.245 25.701a13.6 13.6 0 0 1-4.573.799c-7.558 0-13.672-6.113-13.672-13.672 0-.692.067-1.367.165-2.029L18.061 49.67c.754 1.3 1.58 2.568 2.518 3.773.723.976 1.699 2.227 2.832 3.691 2.475 3.19 5.779 7.454 8.965 12.039zM34.657 72.554c4.067 6.219 7.524 12.69 8.149 17.686a3.93 3.93 0 0 0 3.886 3.379c1.992 0 3.653-1.465 3.887-3.418 1.191-9.434 12.832-24.375 19.101-32.422a519 519 0 0 0 2.93-3.789 33.4 33.4 0 0 0 7.402-20.918c0-4.535-.919-8.859-2.576-12.803z" />
</svg>