<svg xmlns="http://www.w3.org/2000/svg" viewBox="0 0 122.52 122.523">
  <path fill="#444" d="M8.708 61.26c0 20.802 12.089 38.779 29.619 47.298L13.258 39.872a52.355 52.355 0 0 0-4.55 21.388M96.74 58.608c0-6.495-2.333-10.993-4.334-14.494-2.664-4.329-5.161-7.995-5.161-12.324 0-4.831 3.664-9.328 8.825-9.328.233 0 .454.029.681.042-9.35-8.566-21.807-13.796-35.489-13.796-18.36 0-34.513 9.42-43.91 23.688 1.233.037 2.395.063 3.382.063 5.497 0 14.006-.667 14.006-.667 2.833-.167 3.167 3.994.337 4.329 0 0-2.847.335-6.015.501l19.138 56.925 11.501-34.493-8.188-22.434c-2.83-.166-5.511-.501-5.511-.501-2.832-.166-2.5-4.496.332-4.329 0 0 8.679.667 13.843.667 5.496 0 14.006-.667 14.006-.667 2.835-.167 3.168 3.994.337 4.329 0 0-2.853.335-6.015.501l18.992 56.494 5.242-17.517c2.272-7.269 4.001-12.49 4.001-16.989M62.184 65.857l-15.768 45.819a52.514 52.514 0 0 0 14.846 2.121c6.12 0 11.989-1.058 17.452-2.979a4.08 4.08 0 0 1-.329-.632l-15.201-44.329M109.622 36.151c.228 1.685.354 3.492.354 5.438 0 5.361-1.003 11.393-4.006 18.926l-16.072 46.467c15.639-9.117 26.146-26.057 26.146-45.456 0-8.881-2.208-17.246-6.102-24.564l-.32.189M61.262 0C27.483 0 0 27.481 0 61.26c0 33.783 27.483 61.263 61.262 61.263 33.778 0 61.265-27.48 61.265-61.263C122.526 27.481 95.04 0 61.262 0m0 119.715c-32.23 0-58.453-26.222-58.453-58.455 0-32.23 26.222-58.451 58.453-58.451 32.229 0 58.45 26.221 58.45 58.451 0 32.232-26.221 58.455-58.45 58.455"/>
</svg>
