<svg xmlns="http://www.w3.org/2000/svg" xml:space="preserve" fill-rule="evenodd" stroke-linejoin="round" stroke-miterlimit="2" clip-rule="evenodd" viewBox="0 0 125 125">
    <path fill="#444" fill-rule="nonzero" d="M125 4.47v93.75c-17.605 6.291-22.974 8.93-33.341 8.93-17.528 0-24.165-8.93-41.66-8.93-5.748 0-10.213 1.009-14.284 2.288V82.652c4.071-1.283 8.536-2.287 14.284-2.287 17.504 0 24.137 8.925 41.66 8.925 5.691 0 9.93-.836 15.486-2.596v-58.03c-5.556 1.759-9.795 2.596-15.486 2.596-17.528 0-24.165-8.926-41.66-8.926-14.173 0-20.897 5.744-32.144 8.008v85.742c0 4.898-4.03 8.928-8.927 8.928-4.898 0-8.928-4.03-8.928-8.928V8.685C0 4.004 3.999 0 8.67 0c4.682 0 9.18 3.999 9.18 8.68v3.783c11.247-2.24 17.976-7.998 32.144-7.998 17.504 0 24.137 8.93 41.66 8.93 10.382 0 15.736-2.644 33.341-8.93l.005.005Z"/>
  </svg>