<svg xmlns="http://www.w3.org/2000/svg" viewBox="0 0 30 30">
  <g stroke="#444">
    <path fill="none" stroke-width="2" d="M22.03 4.48V.99H8.06v3.49H4.57v3.49H1.08v13.95h3.49v3.49h3.49v3.49h13.97v-3.49h3.49v-3.49h3.49V7.97h-3.49V4.48h-3.49z"/>
    <path fill="none" d="m10.75 14.07.87-1.96c.32-.5.28-1.12-.08-1.47a.91.91 0 0 0-.16-.12.97.97 0 0 0-.8-.1c-.3.1-.56.29-.73.56-.17.27-1.2 2.8-1.65 4.06-.45 1.25-.27 3.56 1.45 5.29 1.82 1.82 4.47 2.24 6.15.97a.64.64 0 0 0 .19-.13l5.19-4.34c.25-.2.63-.63.29-1.12-.32-.47-.94-.16-1.2.01l-2.98 2.17a.14.14 0 0 1-.09.03.14.14 0 0 1-.11-.05c-.08-.1-.09-.34.03-.44l4.58-3.89c.4-.36.46-.87.13-1.23-.31-.35-.8-.33-1.2.03l-4.13 3.22a.18.18 0 0 1-.12.05.18.18 0 0 1-.15-.08c-.09-.09-.12-.25-.03-.34l4.68-4.53a.93.93 0 0 0 .04-1.29.87.87 0 0 0-.63-.27.93.93 0 0 0-.66.26l-4.77 4.49c-.12.11-.34 0-.37-.14a.15.15 0 0 1 .04-.14l3.65-4.16a.9.9 0 0 0 .29-.66.92.92 0 0 0-.9-.9.9.9 0 0 0-.66.28l-5.54 6.12c-.19.2-.49.21-.63.1a.21.21 0 0 1-.04-.29h.01z"/>
  </g>
</svg>