<svg width="30" height="30" viewBox="0 0 30 30" xmlns="http://www.w3.org/2000/svg" fill-rule="evenodd" clip-rule="evenodd" stroke-linejoin="round" stroke-miterlimit="2">
  <path d="M11.953 11.194l-3.957 2.227-3.865-2.232V6.571l3.965-2.232 3.908 2.314-.05 4.541zM8.045 2.011L2.1 5.447v6.868l5.946 3.433 5.949-3.433V5.447L8.045 2.01zM25.86 11.184l-3.957 2.227-3.865-2.232V6.561l3.966-2.232 3.907 2.314-.05 4.541zm-3.907-9.183l-5.947 3.436v6.868l5.947 3.433 5.948-3.433V5.437L21.953 2zM18.907 23.444l-3.958 2.227-3.864-2.232-.001-4.618 3.966-2.232 3.908 2.314-.051 4.541zm-3.908-9.182l-5.947 3.435v6.868L15 27.999l5.949-3.434v-6.868l-5.949-3.435z" fill="#444" fill-rule="nonzero"/>
</svg>
